%TF.GenerationSoftware,KiCad,Pcbnew,(5.1.9)-1*%
%TF.CreationDate,2021-04-04T18:40:27-05:00*%
%TF.ProjectId,S-video pcb breakout vertical,532d7669-6465-46f2-9070-636220627265,rev?*%
%TF.SameCoordinates,Original*%
%TF.FileFunction,Legend,Top*%
%TF.FilePolarity,Positive*%
%FSLAX46Y46*%
G04 Gerber Fmt 4.6, Leading zero omitted, Abs format (unit mm)*
G04 Created by KiCad (PCBNEW (5.1.9)-1) date 2021-04-04 18:40:27*
%MOMM*%
%LPD*%
G01*
G04 APERTURE LIST*
%ADD10C,0.150000*%
%ADD11C,0.200000*%
%ADD12C,0.100000*%
%ADD13C,0.120000*%
G04 APERTURE END LIST*
D10*
X152816190Y-109470000D02*
X152768571Y-109517619D01*
X152720952Y-109612857D01*
X152720952Y-109708095D01*
X152768571Y-109803333D01*
X152816190Y-109850952D01*
X152911428Y-109898571D01*
X153006666Y-109898571D01*
X153101904Y-109850952D01*
X153149523Y-109803333D01*
X153197142Y-109708095D01*
X153197142Y-109612857D01*
X153149523Y-109517619D01*
X153101904Y-109470000D01*
X152720952Y-109470000D02*
X153101904Y-109470000D01*
X153149523Y-109422380D01*
X153149523Y-109374761D01*
X153101904Y-109279523D01*
X153006666Y-109231904D01*
X152768571Y-109231904D01*
X152625714Y-109327142D01*
X152530476Y-109470000D01*
X152482857Y-109660476D01*
X152530476Y-109850952D01*
X152625714Y-109993809D01*
X152768571Y-110089047D01*
X152959047Y-110136666D01*
X153149523Y-110089047D01*
X153292380Y-109993809D01*
X153387619Y-109850952D01*
X153435238Y-109660476D01*
X153387619Y-109470000D01*
X153292380Y-109327142D01*
X153244761Y-108374761D02*
X153292380Y-108470000D01*
X153292380Y-108660476D01*
X153244761Y-108755714D01*
X153197142Y-108803333D01*
X153101904Y-108850952D01*
X152816190Y-108850952D01*
X152720952Y-108803333D01*
X152673333Y-108755714D01*
X152625714Y-108660476D01*
X152625714Y-108470000D01*
X152673333Y-108374761D01*
X152625714Y-108041428D02*
X153292380Y-107803333D01*
X152625714Y-107565238D02*
X153292380Y-107803333D01*
X153530476Y-107898571D01*
X153578095Y-107946190D01*
X153625714Y-108041428D01*
X153292380Y-107041428D02*
X153244761Y-107136666D01*
X153197142Y-107184285D01*
X153101904Y-107231904D01*
X152816190Y-107231904D01*
X152720952Y-107184285D01*
X152673333Y-107136666D01*
X152625714Y-107041428D01*
X152625714Y-106898571D01*
X152673333Y-106803333D01*
X152720952Y-106755714D01*
X152816190Y-106708095D01*
X153101904Y-106708095D01*
X153197142Y-106755714D01*
X153244761Y-106803333D01*
X153292380Y-106898571D01*
X153292380Y-107041428D01*
X153197142Y-106279523D02*
X153244761Y-106231904D01*
X153292380Y-106279523D01*
X153244761Y-106327142D01*
X153197142Y-106279523D01*
X153292380Y-106279523D01*
X152625714Y-105946190D02*
X152625714Y-105565238D01*
X152292380Y-105803333D02*
X153149523Y-105803333D01*
X153244761Y-105755714D01*
X153292380Y-105660476D01*
X153292380Y-105565238D01*
X153292380Y-105231904D02*
X152292380Y-105231904D01*
X153292380Y-104803333D02*
X152768571Y-104803333D01*
X152673333Y-104850952D01*
X152625714Y-104946190D01*
X152625714Y-105089047D01*
X152673333Y-105184285D01*
X152720952Y-105231904D01*
X153244761Y-103946190D02*
X153292380Y-104041428D01*
X153292380Y-104231904D01*
X153244761Y-104327142D01*
X153149523Y-104374761D01*
X152768571Y-104374761D01*
X152673333Y-104327142D01*
X152625714Y-104231904D01*
X152625714Y-104041428D01*
X152673333Y-103946190D01*
X152768571Y-103898571D01*
X152863809Y-103898571D01*
X152959047Y-104374761D01*
X153197142Y-103470000D02*
X153244761Y-103422380D01*
X153292380Y-103470000D01*
X153244761Y-103517619D01*
X153197142Y-103470000D01*
X153292380Y-103470000D01*
X152625714Y-103089047D02*
X153292380Y-102850952D01*
X152625714Y-102612857D01*
X153292380Y-102231904D02*
X152625714Y-102231904D01*
X152292380Y-102231904D02*
X152340000Y-102279523D01*
X152387619Y-102231904D01*
X152340000Y-102184285D01*
X152292380Y-102231904D01*
X152387619Y-102231904D01*
X153292380Y-101612857D02*
X153244761Y-101708095D01*
X153149523Y-101755714D01*
X152292380Y-101755714D01*
X153244761Y-100850952D02*
X153292380Y-100946190D01*
X153292380Y-101136666D01*
X153244761Y-101231904D01*
X153149523Y-101279523D01*
X152768571Y-101279523D01*
X152673333Y-101231904D01*
X152625714Y-101136666D01*
X152625714Y-100946190D01*
X152673333Y-100850952D01*
X152768571Y-100803333D01*
X152863809Y-100803333D01*
X152959047Y-101279523D01*
X164953333Y-98326666D02*
X165653333Y-98326666D01*
X164953333Y-98726666D02*
X165353333Y-98426666D01*
X165653333Y-98726666D02*
X165253333Y-98326666D01*
X164953333Y-99026666D02*
X165653333Y-99026666D01*
X165153333Y-99260000D01*
X165653333Y-99493333D01*
X164953333Y-99493333D01*
X164953333Y-99826666D02*
X165653333Y-99826666D01*
X165653333Y-99993333D01*
X165620000Y-100093333D01*
X165553333Y-100160000D01*
X165486666Y-100193333D01*
X165353333Y-100226666D01*
X165253333Y-100226666D01*
X165120000Y-100193333D01*
X165053333Y-100160000D01*
X164986666Y-100093333D01*
X164953333Y-99993333D01*
X164953333Y-99826666D01*
X165653333Y-100426666D02*
X164953333Y-100660000D01*
X165653333Y-100893333D01*
X164953333Y-101460000D02*
X164953333Y-101126666D01*
X165653333Y-101126666D01*
X165653333Y-101626666D02*
X164953333Y-102093333D01*
X165653333Y-102093333D02*
X164953333Y-101626666D01*
X165220000Y-102360000D02*
X165220000Y-102893333D01*
X165353333Y-103326666D02*
X165386666Y-103260000D01*
X165420000Y-103226666D01*
X165486666Y-103193333D01*
X165520000Y-103193333D01*
X165586666Y-103226666D01*
X165620000Y-103260000D01*
X165653333Y-103326666D01*
X165653333Y-103460000D01*
X165620000Y-103526666D01*
X165586666Y-103560000D01*
X165520000Y-103593333D01*
X165486666Y-103593333D01*
X165420000Y-103560000D01*
X165386666Y-103526666D01*
X165353333Y-103460000D01*
X165353333Y-103326666D01*
X165320000Y-103260000D01*
X165286666Y-103226666D01*
X165220000Y-103193333D01*
X165086666Y-103193333D01*
X165020000Y-103226666D01*
X164986666Y-103260000D01*
X164953333Y-103326666D01*
X164953333Y-103460000D01*
X164986666Y-103526666D01*
X165020000Y-103560000D01*
X165086666Y-103593333D01*
X165220000Y-103593333D01*
X165286666Y-103560000D01*
X165320000Y-103526666D01*
X165353333Y-103460000D01*
X164986666Y-103860000D02*
X164953333Y-103960000D01*
X164953333Y-104126666D01*
X164986666Y-104193333D01*
X165020000Y-104226666D01*
X165086666Y-104260000D01*
X165153333Y-104260000D01*
X165220000Y-104226666D01*
X165253333Y-104193333D01*
X165286666Y-104126666D01*
X165320000Y-103993333D01*
X165353333Y-103926666D01*
X165386666Y-103893333D01*
X165453333Y-103860000D01*
X165520000Y-103860000D01*
X165586666Y-103893333D01*
X165620000Y-103926666D01*
X165653333Y-103993333D01*
X165653333Y-104160000D01*
X165620000Y-104260000D01*
X165220000Y-104560000D02*
X165220000Y-105093333D01*
X164953333Y-105426666D02*
X165653333Y-105426666D01*
X164953333Y-105826666D01*
X165653333Y-105826666D01*
X165220000Y-106160000D02*
X165220000Y-106693333D01*
X164953333Y-107393333D02*
X164953333Y-106993333D01*
X164953333Y-107193333D02*
X165653333Y-107193333D01*
X165553333Y-107126666D01*
X165486666Y-107060000D01*
X165453333Y-106993333D01*
X165320000Y-108460000D02*
X165286666Y-108560000D01*
X165253333Y-108593333D01*
X165186666Y-108626666D01*
X165086666Y-108626666D01*
X165020000Y-108593333D01*
X164986666Y-108560000D01*
X164953333Y-108493333D01*
X164953333Y-108226666D01*
X165653333Y-108226666D01*
X165653333Y-108460000D01*
X165620000Y-108526666D01*
X165586666Y-108560000D01*
X165520000Y-108593333D01*
X165453333Y-108593333D01*
X165386666Y-108560000D01*
X165353333Y-108526666D01*
X165320000Y-108460000D01*
X165320000Y-108226666D01*
X164953333Y-108926666D02*
X165420000Y-108926666D01*
X165286666Y-108926666D02*
X165353333Y-108960000D01*
X165386666Y-108993333D01*
X165420000Y-109060000D01*
X165420000Y-109126666D01*
X164986666Y-109626666D02*
X164953333Y-109560000D01*
X164953333Y-109426666D01*
X164986666Y-109360000D01*
X165053333Y-109326666D01*
X165320000Y-109326666D01*
X165386666Y-109360000D01*
X165420000Y-109426666D01*
X165420000Y-109560000D01*
X165386666Y-109626666D01*
X165320000Y-109660000D01*
X165253333Y-109660000D01*
X165186666Y-109326666D01*
X164953333Y-110260000D02*
X165320000Y-110260000D01*
X165386666Y-110226666D01*
X165420000Y-110160000D01*
X165420000Y-110026666D01*
X165386666Y-109960000D01*
X164986666Y-110260000D02*
X164953333Y-110193333D01*
X164953333Y-110026666D01*
X164986666Y-109960000D01*
X165053333Y-109926666D01*
X165120000Y-109926666D01*
X165186666Y-109960000D01*
X165220000Y-110026666D01*
X165220000Y-110193333D01*
X165253333Y-110260000D01*
X164953333Y-110593333D02*
X165653333Y-110593333D01*
X165220000Y-110660000D02*
X164953333Y-110860000D01*
X165420000Y-110860000D02*
X165153333Y-110593333D01*
X164953333Y-111260000D02*
X164986666Y-111193333D01*
X165020000Y-111160000D01*
X165086666Y-111126666D01*
X165286666Y-111126666D01*
X165353333Y-111160000D01*
X165386666Y-111193333D01*
X165420000Y-111260000D01*
X165420000Y-111360000D01*
X165386666Y-111426666D01*
X165353333Y-111460000D01*
X165286666Y-111493333D01*
X165086666Y-111493333D01*
X165020000Y-111460000D01*
X164986666Y-111426666D01*
X164953333Y-111360000D01*
X164953333Y-111260000D01*
X165420000Y-112093333D02*
X164953333Y-112093333D01*
X165420000Y-111793333D02*
X165053333Y-111793333D01*
X164986666Y-111826666D01*
X164953333Y-111893333D01*
X164953333Y-111993333D01*
X164986666Y-112060000D01*
X165020000Y-112093333D01*
X165420000Y-112326666D02*
X165420000Y-112593333D01*
X165653333Y-112426666D02*
X165053333Y-112426666D01*
X164986666Y-112460000D01*
X164953333Y-112526666D01*
X164953333Y-112593333D01*
X163786666Y-98560000D02*
X163753333Y-98660000D01*
X163753333Y-98826666D01*
X163786666Y-98893333D01*
X163820000Y-98926666D01*
X163886666Y-98960000D01*
X163953333Y-98960000D01*
X164020000Y-98926666D01*
X164053333Y-98893333D01*
X164086666Y-98826666D01*
X164120000Y-98693333D01*
X164153333Y-98626666D01*
X164186666Y-98593333D01*
X164253333Y-98560000D01*
X164320000Y-98560000D01*
X164386666Y-98593333D01*
X164420000Y-98626666D01*
X164453333Y-98693333D01*
X164453333Y-98860000D01*
X164420000Y-98960000D01*
X164020000Y-99260000D02*
X164020000Y-99793333D01*
X164453333Y-100026666D02*
X163753333Y-100260000D01*
X164453333Y-100493333D01*
X163753333Y-100726666D02*
X164220000Y-100726666D01*
X164453333Y-100726666D02*
X164420000Y-100693333D01*
X164386666Y-100726666D01*
X164420000Y-100760000D01*
X164453333Y-100726666D01*
X164386666Y-100726666D01*
X163753333Y-101360000D02*
X164453333Y-101360000D01*
X163786666Y-101360000D02*
X163753333Y-101293333D01*
X163753333Y-101160000D01*
X163786666Y-101093333D01*
X163820000Y-101060000D01*
X163886666Y-101026666D01*
X164086666Y-101026666D01*
X164153333Y-101060000D01*
X164186666Y-101093333D01*
X164220000Y-101160000D01*
X164220000Y-101293333D01*
X164186666Y-101360000D01*
X163786666Y-101960000D02*
X163753333Y-101893333D01*
X163753333Y-101760000D01*
X163786666Y-101693333D01*
X163853333Y-101660000D01*
X164120000Y-101660000D01*
X164186666Y-101693333D01*
X164220000Y-101760000D01*
X164220000Y-101893333D01*
X164186666Y-101960000D01*
X164120000Y-101993333D01*
X164053333Y-101993333D01*
X163986666Y-101660000D01*
X163753333Y-102393333D02*
X163786666Y-102326666D01*
X163820000Y-102293333D01*
X163886666Y-102260000D01*
X164086666Y-102260000D01*
X164153333Y-102293333D01*
X164186666Y-102326666D01*
X164220000Y-102393333D01*
X164220000Y-102493333D01*
X164186666Y-102560000D01*
X164153333Y-102593333D01*
X164086666Y-102626666D01*
X163886666Y-102626666D01*
X163820000Y-102593333D01*
X163786666Y-102560000D01*
X163753333Y-102493333D01*
X163753333Y-102393333D01*
X164453333Y-103360000D02*
X163753333Y-103593333D01*
X164453333Y-103826666D01*
X163786666Y-104326666D02*
X163753333Y-104260000D01*
X163753333Y-104126666D01*
X163786666Y-104060000D01*
X163853333Y-104026666D01*
X164120000Y-104026666D01*
X164186666Y-104060000D01*
X164220000Y-104126666D01*
X164220000Y-104260000D01*
X164186666Y-104326666D01*
X164120000Y-104360000D01*
X164053333Y-104360000D01*
X163986666Y-104026666D01*
X163753333Y-104660000D02*
X164220000Y-104660000D01*
X164086666Y-104660000D02*
X164153333Y-104693333D01*
X164186666Y-104726666D01*
X164220000Y-104793333D01*
X164220000Y-104860000D01*
X164220000Y-104993333D02*
X164220000Y-105260000D01*
X164453333Y-105093333D02*
X163853333Y-105093333D01*
X163786666Y-105126666D01*
X163753333Y-105193333D01*
X163753333Y-105260000D01*
X163753333Y-105493333D02*
X164220000Y-105493333D01*
X164453333Y-105493333D02*
X164420000Y-105460000D01*
X164386666Y-105493333D01*
X164420000Y-105526666D01*
X164453333Y-105493333D01*
X164386666Y-105493333D01*
X163786666Y-106126666D02*
X163753333Y-106060000D01*
X163753333Y-105926666D01*
X163786666Y-105860000D01*
X163820000Y-105826666D01*
X163886666Y-105793333D01*
X164086666Y-105793333D01*
X164153333Y-105826666D01*
X164186666Y-105860000D01*
X164220000Y-105926666D01*
X164220000Y-106060000D01*
X164186666Y-106126666D01*
X163753333Y-106726666D02*
X164120000Y-106726666D01*
X164186666Y-106693333D01*
X164220000Y-106626666D01*
X164220000Y-106493333D01*
X164186666Y-106426666D01*
X163786666Y-106726666D02*
X163753333Y-106660000D01*
X163753333Y-106493333D01*
X163786666Y-106426666D01*
X163853333Y-106393333D01*
X163920000Y-106393333D01*
X163986666Y-106426666D01*
X164020000Y-106493333D01*
X164020000Y-106660000D01*
X164053333Y-106726666D01*
X163753333Y-107160000D02*
X163786666Y-107093333D01*
X163853333Y-107060000D01*
X164453333Y-107060000D01*
X164120000Y-108193333D02*
X164086666Y-108293333D01*
X164053333Y-108326666D01*
X163986666Y-108360000D01*
X163886666Y-108360000D01*
X163820000Y-108326666D01*
X163786666Y-108293333D01*
X163753333Y-108226666D01*
X163753333Y-107960000D01*
X164453333Y-107960000D01*
X164453333Y-108193333D01*
X164420000Y-108260000D01*
X164386666Y-108293333D01*
X164320000Y-108326666D01*
X164253333Y-108326666D01*
X164186666Y-108293333D01*
X164153333Y-108260000D01*
X164120000Y-108193333D01*
X164120000Y-107960000D01*
X163753333Y-108660000D02*
X164220000Y-108660000D01*
X164086666Y-108660000D02*
X164153333Y-108693333D01*
X164186666Y-108726666D01*
X164220000Y-108793333D01*
X164220000Y-108860000D01*
X163786666Y-109360000D02*
X163753333Y-109293333D01*
X163753333Y-109160000D01*
X163786666Y-109093333D01*
X163853333Y-109060000D01*
X164120000Y-109060000D01*
X164186666Y-109093333D01*
X164220000Y-109160000D01*
X164220000Y-109293333D01*
X164186666Y-109360000D01*
X164120000Y-109393333D01*
X164053333Y-109393333D01*
X163986666Y-109060000D01*
X163753333Y-109993333D02*
X164120000Y-109993333D01*
X164186666Y-109960000D01*
X164220000Y-109893333D01*
X164220000Y-109760000D01*
X164186666Y-109693333D01*
X163786666Y-109993333D02*
X163753333Y-109926666D01*
X163753333Y-109760000D01*
X163786666Y-109693333D01*
X163853333Y-109660000D01*
X163920000Y-109660000D01*
X163986666Y-109693333D01*
X164020000Y-109760000D01*
X164020000Y-109926666D01*
X164053333Y-109993333D01*
X163753333Y-110326666D02*
X164453333Y-110326666D01*
X164020000Y-110393333D02*
X163753333Y-110593333D01*
X164220000Y-110593333D02*
X163953333Y-110326666D01*
X163753333Y-110993333D02*
X163786666Y-110926666D01*
X163820000Y-110893333D01*
X163886666Y-110860000D01*
X164086666Y-110860000D01*
X164153333Y-110893333D01*
X164186666Y-110926666D01*
X164220000Y-110993333D01*
X164220000Y-111093333D01*
X164186666Y-111160000D01*
X164153333Y-111193333D01*
X164086666Y-111226666D01*
X163886666Y-111226666D01*
X163820000Y-111193333D01*
X163786666Y-111160000D01*
X163753333Y-111093333D01*
X163753333Y-110993333D01*
X164220000Y-111826666D02*
X163753333Y-111826666D01*
X164220000Y-111526666D02*
X163853333Y-111526666D01*
X163786666Y-111560000D01*
X163753333Y-111626666D01*
X163753333Y-111726666D01*
X163786666Y-111793333D01*
X163820000Y-111826666D01*
X164220000Y-112060000D02*
X164220000Y-112326666D01*
X164453333Y-112160000D02*
X163853333Y-112160000D01*
X163786666Y-112193333D01*
X163753333Y-112260000D01*
X163753333Y-112326666D01*
D11*
%TO.C,J1*%
X151320000Y-106700000D02*
G75*
G02*
X151220000Y-106500000I-50000J100000D01*
G01*
X151220000Y-106700000D02*
G75*
G02*
X151320000Y-106500000I50000J100000D01*
G01*
X151320000Y-106700000D02*
G75*
G02*
X151220000Y-106500000I-50000J100000D01*
G01*
D12*
X158820000Y-140500000D02*
G75*
G02*
X158820000Y-98500000I0J21000000D01*
G01*
X158820000Y-126500000D02*
G75*
G02*
X158820000Y-112500000I0J7000000D01*
G01*
D11*
X151220000Y-106500000D02*
X151220000Y-106500000D01*
X151320000Y-106500000D02*
X151320000Y-106500000D01*
X151220000Y-106500000D02*
X151220000Y-106500000D01*
D12*
X158820000Y-98500000D02*
X158820000Y-98500000D01*
X158820000Y-112500000D02*
X158820000Y-112500000D01*
D13*
%TO.C,J2*%
X147170000Y-104070000D02*
X149830000Y-104070000D01*
X147170000Y-104070000D02*
X147170000Y-109210000D01*
X147170000Y-109210000D02*
X149830000Y-109210000D01*
X149830000Y-104070000D02*
X149830000Y-109210000D01*
X149830000Y-101470000D02*
X149830000Y-102800000D01*
X148500000Y-101470000D02*
X149830000Y-101470000D01*
%TD*%
M02*
