%TF.GenerationSoftware,KiCad,Pcbnew,(5.1.9)-1*%
%TF.CreationDate,2021-04-04T18:40:27-05:00*%
%TF.ProjectId,S-video pcb breakout vertical,532d7669-6465-46f2-9070-636220627265,rev?*%
%TF.SameCoordinates,Original*%
%TF.FileFunction,Legend,Bot*%
%TF.FilePolarity,Positive*%
%FSLAX46Y46*%
G04 Gerber Fmt 4.6, Leading zero omitted, Abs format (unit mm)*
G04 Created by KiCad (PCBNEW (5.1.9)-1) date 2021-04-04 18:40:27*
%MOMM*%
%LPD*%
G01*
G04 APERTURE LIST*
%ADD10C,0.150000*%
G04 APERTURE END LIST*
D10*
X162907142Y-112664761D02*
X162764285Y-112712380D01*
X162526190Y-112712380D01*
X162430952Y-112664761D01*
X162383333Y-112617142D01*
X162335714Y-112521904D01*
X162335714Y-112426666D01*
X162383333Y-112331428D01*
X162430952Y-112283809D01*
X162526190Y-112236190D01*
X162716666Y-112188571D01*
X162811904Y-112140952D01*
X162859523Y-112093333D01*
X162907142Y-111998095D01*
X162907142Y-111902857D01*
X162859523Y-111807619D01*
X162811904Y-111760000D01*
X162716666Y-111712380D01*
X162478571Y-111712380D01*
X162335714Y-111760000D01*
X161764285Y-112712380D02*
X161859523Y-112664761D01*
X161907142Y-112617142D01*
X161954761Y-112521904D01*
X161954761Y-112236190D01*
X161907142Y-112140952D01*
X161859523Y-112093333D01*
X161764285Y-112045714D01*
X161621428Y-112045714D01*
X161526190Y-112093333D01*
X161478571Y-112140952D01*
X161430952Y-112236190D01*
X161430952Y-112521904D01*
X161478571Y-112617142D01*
X161526190Y-112664761D01*
X161621428Y-112712380D01*
X161764285Y-112712380D01*
X160859523Y-112712380D02*
X160954761Y-112664761D01*
X161002380Y-112569523D01*
X161002380Y-111712380D01*
X160050000Y-112712380D02*
X160050000Y-111712380D01*
X160050000Y-112664761D02*
X160145238Y-112712380D01*
X160335714Y-112712380D01*
X160430952Y-112664761D01*
X160478571Y-112617142D01*
X160526190Y-112521904D01*
X160526190Y-112236190D01*
X160478571Y-112140952D01*
X160430952Y-112093333D01*
X160335714Y-112045714D01*
X160145238Y-112045714D01*
X160050000Y-112093333D01*
X159192857Y-112664761D02*
X159288095Y-112712380D01*
X159478571Y-112712380D01*
X159573809Y-112664761D01*
X159621428Y-112569523D01*
X159621428Y-112188571D01*
X159573809Y-112093333D01*
X159478571Y-112045714D01*
X159288095Y-112045714D01*
X159192857Y-112093333D01*
X159145238Y-112188571D01*
X159145238Y-112283809D01*
X159621428Y-112379047D01*
X158716666Y-112712380D02*
X158716666Y-112045714D01*
X158716666Y-112236190D02*
X158669047Y-112140952D01*
X158621428Y-112093333D01*
X158526190Y-112045714D01*
X158430952Y-112045714D01*
X157478571Y-112045714D02*
X157097619Y-112045714D01*
X157335714Y-111712380D02*
X157335714Y-112569523D01*
X157288095Y-112664761D01*
X157192857Y-112712380D01*
X157097619Y-112712380D01*
X156764285Y-112712380D02*
X156764285Y-111712380D01*
X156335714Y-112712380D02*
X156335714Y-112188571D01*
X156383333Y-112093333D01*
X156478571Y-112045714D01*
X156621428Y-112045714D01*
X156716666Y-112093333D01*
X156764285Y-112140952D01*
X155859523Y-112712380D02*
X155859523Y-112045714D01*
X155859523Y-111712380D02*
X155907142Y-111760000D01*
X155859523Y-111807619D01*
X155811904Y-111760000D01*
X155859523Y-111712380D01*
X155859523Y-111807619D01*
X155430952Y-112664761D02*
X155335714Y-112712380D01*
X155145238Y-112712380D01*
X155050000Y-112664761D01*
X155002380Y-112569523D01*
X155002380Y-112521904D01*
X155050000Y-112426666D01*
X155145238Y-112379047D01*
X155288095Y-112379047D01*
X155383333Y-112331428D01*
X155430952Y-112236190D01*
X155430952Y-112188571D01*
X155383333Y-112093333D01*
X155288095Y-112045714D01*
X155145238Y-112045714D01*
X155050000Y-112093333D01*
X153859523Y-112664761D02*
X153764285Y-112712380D01*
X153573809Y-112712380D01*
X153478571Y-112664761D01*
X153430952Y-112569523D01*
X153430952Y-112521904D01*
X153478571Y-112426666D01*
X153573809Y-112379047D01*
X153716666Y-112379047D01*
X153811904Y-112331428D01*
X153859523Y-112236190D01*
X153859523Y-112188571D01*
X153811904Y-112093333D01*
X153716666Y-112045714D01*
X153573809Y-112045714D01*
X153478571Y-112093333D01*
X153002380Y-112712380D02*
X153002380Y-112045714D01*
X153002380Y-111712380D02*
X153050000Y-111760000D01*
X153002380Y-111807619D01*
X152954761Y-111760000D01*
X153002380Y-111712380D01*
X153002380Y-111807619D01*
X152097619Y-112712380D02*
X152097619Y-111712380D01*
X152097619Y-112664761D02*
X152192857Y-112712380D01*
X152383333Y-112712380D01*
X152478571Y-112664761D01*
X152526190Y-112617142D01*
X152573809Y-112521904D01*
X152573809Y-112236190D01*
X152526190Y-112140952D01*
X152478571Y-112093333D01*
X152383333Y-112045714D01*
X152192857Y-112045714D01*
X152097619Y-112093333D01*
X151240476Y-112664761D02*
X151335714Y-112712380D01*
X151526190Y-112712380D01*
X151621428Y-112664761D01*
X151669047Y-112569523D01*
X151669047Y-112188571D01*
X151621428Y-112093333D01*
X151526190Y-112045714D01*
X151335714Y-112045714D01*
X151240476Y-112093333D01*
X151192857Y-112188571D01*
X151192857Y-112283809D01*
X151669047Y-112379047D01*
X152931904Y-107370000D02*
X153027142Y-107322380D01*
X153170000Y-107322380D01*
X153312857Y-107370000D01*
X153408095Y-107465238D01*
X153455714Y-107560476D01*
X153503333Y-107750952D01*
X153503333Y-107893809D01*
X153455714Y-108084285D01*
X153408095Y-108179523D01*
X153312857Y-108274761D01*
X153170000Y-108322380D01*
X153074761Y-108322380D01*
X152931904Y-108274761D01*
X152884285Y-108227142D01*
X152884285Y-107893809D01*
X153074761Y-107893809D01*
X152455714Y-108322380D02*
X152455714Y-107322380D01*
X151884285Y-108322380D01*
X151884285Y-107322380D01*
X151408095Y-108322380D02*
X151408095Y-107322380D01*
X151170000Y-107322380D01*
X151027142Y-107370000D01*
X150931904Y-107465238D01*
X150884285Y-107560476D01*
X150836666Y-107750952D01*
X150836666Y-107893809D01*
X150884285Y-108084285D01*
X150931904Y-108179523D01*
X151027142Y-108274761D01*
X151170000Y-108322380D01*
X151408095Y-108322380D01*
X154998095Y-105667142D02*
X155045714Y-105714761D01*
X155188571Y-105762380D01*
X155283809Y-105762380D01*
X155426666Y-105714761D01*
X155521904Y-105619523D01*
X155569523Y-105524285D01*
X155617142Y-105333809D01*
X155617142Y-105190952D01*
X155569523Y-105000476D01*
X155521904Y-104905238D01*
X155426666Y-104810000D01*
X155283809Y-104762380D01*
X155188571Y-104762380D01*
X155045714Y-104810000D01*
X154998095Y-104857619D01*
X154569523Y-105762380D02*
X154569523Y-104762380D01*
X154569523Y-105238571D02*
X153998095Y-105238571D01*
X153998095Y-105762380D02*
X153998095Y-104762380D01*
X152950476Y-105762380D02*
X153283809Y-105286190D01*
X153521904Y-105762380D02*
X153521904Y-104762380D01*
X153140952Y-104762380D01*
X153045714Y-104810000D01*
X152998095Y-104857619D01*
X152950476Y-104952857D01*
X152950476Y-105095714D01*
X152998095Y-105190952D01*
X153045714Y-105238571D01*
X153140952Y-105286190D01*
X153521904Y-105286190D01*
X152331428Y-104762380D02*
X152140952Y-104762380D01*
X152045714Y-104810000D01*
X151950476Y-104905238D01*
X151902857Y-105095714D01*
X151902857Y-105429047D01*
X151950476Y-105619523D01*
X152045714Y-105714761D01*
X152140952Y-105762380D01*
X152331428Y-105762380D01*
X152426666Y-105714761D01*
X152521904Y-105619523D01*
X152569523Y-105429047D01*
X152569523Y-105095714D01*
X152521904Y-104905238D01*
X152426666Y-104810000D01*
X152331428Y-104762380D01*
X151474285Y-105762380D02*
X151474285Y-104762380D01*
X151140952Y-105476666D01*
X150807619Y-104762380D01*
X150807619Y-105762380D01*
X150379047Y-105476666D02*
X149902857Y-105476666D01*
X150474285Y-105762380D02*
X150140952Y-104762380D01*
X149807619Y-105762380D01*
X153364285Y-102952380D02*
X153840476Y-102952380D01*
X153840476Y-101952380D01*
X153030952Y-101952380D02*
X153030952Y-102761904D01*
X152983333Y-102857142D01*
X152935714Y-102904761D01*
X152840476Y-102952380D01*
X152650000Y-102952380D01*
X152554761Y-102904761D01*
X152507142Y-102857142D01*
X152459523Y-102761904D01*
X152459523Y-101952380D01*
X151983333Y-102952380D02*
X151983333Y-101952380D01*
X151650000Y-102666666D01*
X151316666Y-101952380D01*
X151316666Y-102952380D01*
X150888095Y-102666666D02*
X150411904Y-102666666D01*
X150983333Y-102952380D02*
X150650000Y-101952380D01*
X150316666Y-102952380D01*
M02*
