%FSLAX45Y45*%
G04 Gerber Fmt 4.5, Leading zero omitted, Abs format (unit mm)*
G04 Created by KiCad (PCBNEW (5.1.9)-1) date 2021-04-04 18:40:29*
%MOMM*%
%LPD*%
G01*
G04 APERTURE LIST*
%TA.AperFunction,Profile*%
%ADD10C,0.050000*%
%TD*%
%ADD11C,0.200000*%
%ADD12C,0.300000*%
G04 APERTURE END LIST*
D10*
X14618000Y-11335000D02*
X16689000Y-11335000D01*
X14618000Y-9745000D02*
X14618000Y-11335000D01*
X16691000Y-9745000D02*
X14618000Y-9745000D01*
X16690000Y-11351000D02*
X16691000Y-9745000D01*
D11*
X14800000Y-10230000D02*
X14900000Y-10330000D01*
X14900000Y-10230000D02*
X14800000Y-10330000D01*
X14800000Y-10484000D02*
X14900000Y-10584000D01*
X14900000Y-10484000D02*
X14800000Y-10584000D01*
X14800000Y-10738000D02*
X14900000Y-10838000D01*
X14900000Y-10738000D02*
X14800000Y-10838000D01*
X15562000Y-10600000D02*
X15662000Y-10700000D01*
X15662000Y-10600000D02*
X15562000Y-10700000D01*
X15592000Y-10370000D02*
X15692000Y-10470000D01*
X15692000Y-10370000D02*
X15592000Y-10470000D01*
X15792000Y-10215000D02*
X15892000Y-10315000D01*
X15892000Y-10215000D02*
X15792000Y-10315000D01*
X15792000Y-10510000D02*
X15892000Y-10610000D01*
X15892000Y-10510000D02*
X15792000Y-10610000D01*
X15792000Y-10785000D02*
X15892000Y-10885000D01*
X15892000Y-10785000D02*
X15792000Y-10885000D01*
X15992000Y-10265000D02*
X16092000Y-10365000D01*
X16092000Y-10265000D02*
X15992000Y-10365000D01*
X15992000Y-10735000D02*
X16092000Y-10835000D01*
X16092000Y-10735000D02*
X15992000Y-10835000D01*
X16022000Y-10500000D02*
X16122000Y-10600000D01*
X16122000Y-10500000D02*
X16022000Y-10600000D01*
X15956000Y-10080000D02*
G75*
G03*
X15956000Y-10080000I-74000J0D01*
G01*
X15956000Y-11020000D02*
G75*
G03*
X15956000Y-11020000I-74000J0D01*
G01*
D12*
X14901928Y-11819214D02*
X14901928Y-11519214D01*
X14973357Y-11519214D01*
X15016214Y-11533500D01*
X15044786Y-11562071D01*
X15059071Y-11590643D01*
X15073357Y-11647786D01*
X15073357Y-11690643D01*
X15059071Y-11747786D01*
X15044786Y-11776357D01*
X15016214Y-11804929D01*
X14973357Y-11819214D01*
X14901928Y-11819214D01*
X15201928Y-11819214D02*
X15201928Y-11619214D01*
X15201928Y-11676357D02*
X15216214Y-11647786D01*
X15230500Y-11633500D01*
X15259071Y-11619214D01*
X15287643Y-11619214D01*
X15387643Y-11819214D02*
X15387643Y-11619214D01*
X15387643Y-11519214D02*
X15373357Y-11533500D01*
X15387643Y-11547786D01*
X15401928Y-11533500D01*
X15387643Y-11519214D01*
X15387643Y-11547786D01*
X15573357Y-11819214D02*
X15544786Y-11804929D01*
X15530500Y-11776357D01*
X15530500Y-11519214D01*
X15730500Y-11819214D02*
X15701928Y-11804929D01*
X15687643Y-11776357D01*
X15687643Y-11519214D01*
X16073357Y-11819214D02*
X16073357Y-11519214D01*
X16173357Y-11733500D01*
X16273357Y-11519214D01*
X16273357Y-11819214D01*
X16544786Y-11819214D02*
X16544786Y-11662071D01*
X16530500Y-11633500D01*
X16501928Y-11619214D01*
X16444786Y-11619214D01*
X16416214Y-11633500D01*
X16544786Y-11804929D02*
X16516214Y-11819214D01*
X16444786Y-11819214D01*
X16416214Y-11804929D01*
X16401928Y-11776357D01*
X16401928Y-11747786D01*
X16416214Y-11719214D01*
X16444786Y-11704929D01*
X16516214Y-11704929D01*
X16544786Y-11690643D01*
X16687643Y-11619214D02*
X16687643Y-11919214D01*
X16687643Y-11633500D02*
X16716214Y-11619214D01*
X16773357Y-11619214D01*
X16801928Y-11633500D01*
X16816214Y-11647786D01*
X16830500Y-11676357D01*
X16830500Y-11762071D01*
X16816214Y-11790643D01*
X16801928Y-11804929D01*
X16773357Y-11819214D01*
X16716214Y-11819214D01*
X16687643Y-11804929D01*
X16959071Y-11790643D02*
X16973357Y-11804929D01*
X16959071Y-11819214D01*
X16944786Y-11804929D01*
X16959071Y-11790643D01*
X16959071Y-11819214D01*
X16959071Y-11633500D02*
X16973357Y-11647786D01*
X16959071Y-11662071D01*
X16944786Y-11647786D01*
X16959071Y-11633500D01*
X16959071Y-11662071D01*
X14515500Y-12263500D02*
X14615500Y-12363500D01*
X14615500Y-12263500D02*
X14515500Y-12363500D01*
X15059071Y-12449214D02*
X14887643Y-12449214D01*
X14973357Y-12449214D02*
X14973357Y-12149214D01*
X14944786Y-12192071D01*
X14916214Y-12220643D01*
X14887643Y-12234929D01*
X15187643Y-12420643D02*
X15201928Y-12434929D01*
X15187643Y-12449214D01*
X15173357Y-12434929D01*
X15187643Y-12420643D01*
X15187643Y-12449214D01*
X15387643Y-12149214D02*
X15416214Y-12149214D01*
X15444786Y-12163500D01*
X15459071Y-12177786D01*
X15473357Y-12206357D01*
X15487643Y-12263500D01*
X15487643Y-12334929D01*
X15473357Y-12392071D01*
X15459071Y-12420643D01*
X15444786Y-12434929D01*
X15416214Y-12449214D01*
X15387643Y-12449214D01*
X15359071Y-12434929D01*
X15344786Y-12420643D01*
X15330500Y-12392071D01*
X15316214Y-12334929D01*
X15316214Y-12263500D01*
X15330500Y-12206357D01*
X15344786Y-12177786D01*
X15359071Y-12163500D01*
X15387643Y-12149214D01*
X15673357Y-12149214D02*
X15701928Y-12149214D01*
X15730500Y-12163500D01*
X15744786Y-12177786D01*
X15759071Y-12206357D01*
X15773357Y-12263500D01*
X15773357Y-12334929D01*
X15759071Y-12392071D01*
X15744786Y-12420643D01*
X15730500Y-12434929D01*
X15701928Y-12449214D01*
X15673357Y-12449214D01*
X15644786Y-12434929D01*
X15630500Y-12420643D01*
X15616214Y-12392071D01*
X15601928Y-12334929D01*
X15601928Y-12263500D01*
X15616214Y-12206357D01*
X15630500Y-12177786D01*
X15644786Y-12163500D01*
X15673357Y-12149214D01*
X15901928Y-12449214D02*
X15901928Y-12249214D01*
X15901928Y-12277786D02*
X15916214Y-12263500D01*
X15944786Y-12249214D01*
X15987643Y-12249214D01*
X16016214Y-12263500D01*
X16030500Y-12292071D01*
X16030500Y-12449214D01*
X16030500Y-12292071D02*
X16044786Y-12263500D01*
X16073357Y-12249214D01*
X16116214Y-12249214D01*
X16144786Y-12263500D01*
X16159071Y-12292071D01*
X16159071Y-12449214D01*
X16301928Y-12449214D02*
X16301928Y-12249214D01*
X16301928Y-12277786D02*
X16316214Y-12263500D01*
X16344786Y-12249214D01*
X16387643Y-12249214D01*
X16416214Y-12263500D01*
X16430500Y-12292071D01*
X16430500Y-12449214D01*
X16430500Y-12292071D02*
X16444786Y-12263500D01*
X16473357Y-12249214D01*
X16516214Y-12249214D01*
X16544786Y-12263500D01*
X16559071Y-12292071D01*
X16559071Y-12449214D01*
X17144786Y-12134929D02*
X16887643Y-12520643D01*
X17530500Y-12149214D02*
X17559071Y-12149214D01*
X17587643Y-12163500D01*
X17601928Y-12177786D01*
X17616214Y-12206357D01*
X17630500Y-12263500D01*
X17630500Y-12334929D01*
X17616214Y-12392071D01*
X17601928Y-12420643D01*
X17587643Y-12434929D01*
X17559071Y-12449214D01*
X17530500Y-12449214D01*
X17501928Y-12434929D01*
X17487643Y-12420643D01*
X17473357Y-12392071D01*
X17459071Y-12334929D01*
X17459071Y-12263500D01*
X17473357Y-12206357D01*
X17487643Y-12177786D01*
X17501928Y-12163500D01*
X17530500Y-12149214D01*
X17759071Y-12420643D02*
X17773357Y-12434929D01*
X17759071Y-12449214D01*
X17744786Y-12434929D01*
X17759071Y-12420643D01*
X17759071Y-12449214D01*
X17959071Y-12149214D02*
X17987643Y-12149214D01*
X18016214Y-12163500D01*
X18030500Y-12177786D01*
X18044786Y-12206357D01*
X18059071Y-12263500D01*
X18059071Y-12334929D01*
X18044786Y-12392071D01*
X18030500Y-12420643D01*
X18016214Y-12434929D01*
X17987643Y-12449214D01*
X17959071Y-12449214D01*
X17930500Y-12434929D01*
X17916214Y-12420643D01*
X17901928Y-12392071D01*
X17887643Y-12334929D01*
X17887643Y-12263500D01*
X17901928Y-12206357D01*
X17916214Y-12177786D01*
X17930500Y-12163500D01*
X17959071Y-12149214D01*
X18159071Y-12149214D02*
X18344786Y-12149214D01*
X18244786Y-12263500D01*
X18287643Y-12263500D01*
X18316214Y-12277786D01*
X18330500Y-12292071D01*
X18344786Y-12320643D01*
X18344786Y-12392071D01*
X18330500Y-12420643D01*
X18316214Y-12434929D01*
X18287643Y-12449214D01*
X18201928Y-12449214D01*
X18173357Y-12434929D01*
X18159071Y-12420643D01*
X18487643Y-12449214D02*
X18544786Y-12449214D01*
X18573357Y-12434929D01*
X18587643Y-12420643D01*
X18616214Y-12377786D01*
X18630500Y-12320643D01*
X18630500Y-12206357D01*
X18616214Y-12177786D01*
X18601928Y-12163500D01*
X18573357Y-12149214D01*
X18516214Y-12149214D01*
X18487643Y-12163500D01*
X18473357Y-12177786D01*
X18459071Y-12206357D01*
X18459071Y-12277786D01*
X18473357Y-12306357D01*
X18487643Y-12320643D01*
X18516214Y-12334929D01*
X18573357Y-12334929D01*
X18601928Y-12320643D01*
X18616214Y-12306357D01*
X18630500Y-12277786D01*
X18744786Y-12149214D02*
X18744786Y-12206357D01*
X18859071Y-12149214D02*
X18859071Y-12206357D01*
X19301928Y-12563500D02*
X19287643Y-12549214D01*
X19259071Y-12506357D01*
X19244786Y-12477786D01*
X19230500Y-12434929D01*
X19216214Y-12363500D01*
X19216214Y-12306357D01*
X19230500Y-12234929D01*
X19244786Y-12192071D01*
X19259071Y-12163500D01*
X19287643Y-12120643D01*
X19301928Y-12106357D01*
X19573357Y-12449214D02*
X19401928Y-12449214D01*
X19487643Y-12449214D02*
X19487643Y-12149214D01*
X19459071Y-12192071D01*
X19430500Y-12220643D01*
X19401928Y-12234929D01*
X19859071Y-12449214D02*
X19687643Y-12449214D01*
X19773357Y-12449214D02*
X19773357Y-12149214D01*
X19744786Y-12192071D01*
X19716214Y-12220643D01*
X19687643Y-12234929D01*
X20216214Y-12449214D02*
X20216214Y-12149214D01*
X20344786Y-12449214D02*
X20344786Y-12292071D01*
X20330500Y-12263500D01*
X20301928Y-12249214D01*
X20259071Y-12249214D01*
X20230500Y-12263500D01*
X20216214Y-12277786D01*
X20530500Y-12449214D02*
X20501928Y-12434929D01*
X20487643Y-12420643D01*
X20473357Y-12392071D01*
X20473357Y-12306357D01*
X20487643Y-12277786D01*
X20501928Y-12263500D01*
X20530500Y-12249214D01*
X20573357Y-12249214D01*
X20601928Y-12263500D01*
X20616214Y-12277786D01*
X20630500Y-12306357D01*
X20630500Y-12392071D01*
X20616214Y-12420643D01*
X20601928Y-12434929D01*
X20573357Y-12449214D01*
X20530500Y-12449214D01*
X20801928Y-12449214D02*
X20773357Y-12434929D01*
X20759071Y-12406357D01*
X20759071Y-12149214D01*
X21030500Y-12434929D02*
X21001928Y-12449214D01*
X20944786Y-12449214D01*
X20916214Y-12434929D01*
X20901928Y-12406357D01*
X20901928Y-12292071D01*
X20916214Y-12263500D01*
X20944786Y-12249214D01*
X21001928Y-12249214D01*
X21030500Y-12263500D01*
X21044786Y-12292071D01*
X21044786Y-12320643D01*
X20901928Y-12349214D01*
X21159071Y-12434929D02*
X21187643Y-12449214D01*
X21244786Y-12449214D01*
X21273357Y-12434929D01*
X21287643Y-12406357D01*
X21287643Y-12392071D01*
X21273357Y-12363500D01*
X21244786Y-12349214D01*
X21201928Y-12349214D01*
X21173357Y-12334929D01*
X21159071Y-12306357D01*
X21159071Y-12292071D01*
X21173357Y-12263500D01*
X21201928Y-12249214D01*
X21244786Y-12249214D01*
X21273357Y-12263500D01*
X21387643Y-12563500D02*
X21401928Y-12549214D01*
X21430500Y-12506357D01*
X21444786Y-12477786D01*
X21459071Y-12434929D01*
X21473357Y-12363500D01*
X21473357Y-12306357D01*
X21459071Y-12234929D01*
X21444786Y-12192071D01*
X21430500Y-12163500D01*
X21401928Y-12120643D01*
X21387643Y-12106357D01*
X14615500Y-12709500D02*
G75*
G03*
X14615500Y-12709500I-74000J0D01*
G01*
X15059071Y-12845214D02*
X14887643Y-12845214D01*
X14973357Y-12845214D02*
X14973357Y-12545214D01*
X14944786Y-12588071D01*
X14916214Y-12616643D01*
X14887643Y-12630929D01*
X15187643Y-12816643D02*
X15201928Y-12830929D01*
X15187643Y-12845214D01*
X15173357Y-12830929D01*
X15187643Y-12816643D01*
X15187643Y-12845214D01*
X15459071Y-12645214D02*
X15459071Y-12845214D01*
X15387643Y-12530929D02*
X15316214Y-12745214D01*
X15501928Y-12745214D01*
X15659071Y-12673786D02*
X15630500Y-12659500D01*
X15616214Y-12645214D01*
X15601928Y-12616643D01*
X15601928Y-12602357D01*
X15616214Y-12573786D01*
X15630500Y-12559500D01*
X15659071Y-12545214D01*
X15716214Y-12545214D01*
X15744786Y-12559500D01*
X15759071Y-12573786D01*
X15773357Y-12602357D01*
X15773357Y-12616643D01*
X15759071Y-12645214D01*
X15744786Y-12659500D01*
X15716214Y-12673786D01*
X15659071Y-12673786D01*
X15630500Y-12688071D01*
X15616214Y-12702357D01*
X15601928Y-12730929D01*
X15601928Y-12788071D01*
X15616214Y-12816643D01*
X15630500Y-12830929D01*
X15659071Y-12845214D01*
X15716214Y-12845214D01*
X15744786Y-12830929D01*
X15759071Y-12816643D01*
X15773357Y-12788071D01*
X15773357Y-12730929D01*
X15759071Y-12702357D01*
X15744786Y-12688071D01*
X15716214Y-12673786D01*
X15901928Y-12845214D02*
X15901928Y-12645214D01*
X15901928Y-12673786D02*
X15916214Y-12659500D01*
X15944786Y-12645214D01*
X15987643Y-12645214D01*
X16016214Y-12659500D01*
X16030500Y-12688071D01*
X16030500Y-12845214D01*
X16030500Y-12688071D02*
X16044786Y-12659500D01*
X16073357Y-12645214D01*
X16116214Y-12645214D01*
X16144786Y-12659500D01*
X16159071Y-12688071D01*
X16159071Y-12845214D01*
X16301928Y-12845214D02*
X16301928Y-12645214D01*
X16301928Y-12673786D02*
X16316214Y-12659500D01*
X16344786Y-12645214D01*
X16387643Y-12645214D01*
X16416214Y-12659500D01*
X16430500Y-12688071D01*
X16430500Y-12845214D01*
X16430500Y-12688071D02*
X16444786Y-12659500D01*
X16473357Y-12645214D01*
X16516214Y-12645214D01*
X16544786Y-12659500D01*
X16559071Y-12688071D01*
X16559071Y-12845214D01*
X17144786Y-12530929D02*
X16887643Y-12916643D01*
X17530500Y-12545214D02*
X17559071Y-12545214D01*
X17587643Y-12559500D01*
X17601928Y-12573786D01*
X17616214Y-12602357D01*
X17630500Y-12659500D01*
X17630500Y-12730929D01*
X17616214Y-12788071D01*
X17601928Y-12816643D01*
X17587643Y-12830929D01*
X17559071Y-12845214D01*
X17530500Y-12845214D01*
X17501928Y-12830929D01*
X17487643Y-12816643D01*
X17473357Y-12788071D01*
X17459071Y-12730929D01*
X17459071Y-12659500D01*
X17473357Y-12602357D01*
X17487643Y-12573786D01*
X17501928Y-12559500D01*
X17530500Y-12545214D01*
X17759071Y-12816643D02*
X17773357Y-12830929D01*
X17759071Y-12845214D01*
X17744786Y-12830929D01*
X17759071Y-12816643D01*
X17759071Y-12845214D01*
X17959071Y-12545214D02*
X17987643Y-12545214D01*
X18016214Y-12559500D01*
X18030500Y-12573786D01*
X18044786Y-12602357D01*
X18059071Y-12659500D01*
X18059071Y-12730929D01*
X18044786Y-12788071D01*
X18030500Y-12816643D01*
X18016214Y-12830929D01*
X17987643Y-12845214D01*
X17959071Y-12845214D01*
X17930500Y-12830929D01*
X17916214Y-12816643D01*
X17901928Y-12788071D01*
X17887643Y-12730929D01*
X17887643Y-12659500D01*
X17901928Y-12602357D01*
X17916214Y-12573786D01*
X17930500Y-12559500D01*
X17959071Y-12545214D01*
X18330500Y-12545214D02*
X18187643Y-12545214D01*
X18173357Y-12688071D01*
X18187643Y-12673786D01*
X18216214Y-12659500D01*
X18287643Y-12659500D01*
X18316214Y-12673786D01*
X18330500Y-12688071D01*
X18344786Y-12716643D01*
X18344786Y-12788071D01*
X18330500Y-12816643D01*
X18316214Y-12830929D01*
X18287643Y-12845214D01*
X18216214Y-12845214D01*
X18187643Y-12830929D01*
X18173357Y-12816643D01*
X18516214Y-12673786D02*
X18487643Y-12659500D01*
X18473357Y-12645214D01*
X18459071Y-12616643D01*
X18459071Y-12602357D01*
X18473357Y-12573786D01*
X18487643Y-12559500D01*
X18516214Y-12545214D01*
X18573357Y-12545214D01*
X18601928Y-12559500D01*
X18616214Y-12573786D01*
X18630500Y-12602357D01*
X18630500Y-12616643D01*
X18616214Y-12645214D01*
X18601928Y-12659500D01*
X18573357Y-12673786D01*
X18516214Y-12673786D01*
X18487643Y-12688071D01*
X18473357Y-12702357D01*
X18459071Y-12730929D01*
X18459071Y-12788071D01*
X18473357Y-12816643D01*
X18487643Y-12830929D01*
X18516214Y-12845214D01*
X18573357Y-12845214D01*
X18601928Y-12830929D01*
X18616214Y-12816643D01*
X18630500Y-12788071D01*
X18630500Y-12730929D01*
X18616214Y-12702357D01*
X18601928Y-12688071D01*
X18573357Y-12673786D01*
X18744786Y-12545214D02*
X18744786Y-12602357D01*
X18859071Y-12545214D02*
X18859071Y-12602357D01*
X19301928Y-12959500D02*
X19287643Y-12945214D01*
X19259071Y-12902357D01*
X19244786Y-12873786D01*
X19230500Y-12830929D01*
X19216214Y-12759500D01*
X19216214Y-12702357D01*
X19230500Y-12630929D01*
X19244786Y-12588071D01*
X19259071Y-12559500D01*
X19287643Y-12516643D01*
X19301928Y-12502357D01*
X19401928Y-12573786D02*
X19416214Y-12559500D01*
X19444786Y-12545214D01*
X19516214Y-12545214D01*
X19544786Y-12559500D01*
X19559071Y-12573786D01*
X19573357Y-12602357D01*
X19573357Y-12630929D01*
X19559071Y-12673786D01*
X19387643Y-12845214D01*
X19573357Y-12845214D01*
X19930500Y-12845214D02*
X19930500Y-12545214D01*
X20059071Y-12845214D02*
X20059071Y-12688071D01*
X20044786Y-12659500D01*
X20016214Y-12645214D01*
X19973357Y-12645214D01*
X19944786Y-12659500D01*
X19930500Y-12673786D01*
X20244786Y-12845214D02*
X20216214Y-12830929D01*
X20201928Y-12816643D01*
X20187643Y-12788071D01*
X20187643Y-12702357D01*
X20201928Y-12673786D01*
X20216214Y-12659500D01*
X20244786Y-12645214D01*
X20287643Y-12645214D01*
X20316214Y-12659500D01*
X20330500Y-12673786D01*
X20344786Y-12702357D01*
X20344786Y-12788071D01*
X20330500Y-12816643D01*
X20316214Y-12830929D01*
X20287643Y-12845214D01*
X20244786Y-12845214D01*
X20516214Y-12845214D02*
X20487643Y-12830929D01*
X20473357Y-12802357D01*
X20473357Y-12545214D01*
X20744786Y-12830929D02*
X20716214Y-12845214D01*
X20659071Y-12845214D01*
X20630500Y-12830929D01*
X20616214Y-12802357D01*
X20616214Y-12688071D01*
X20630500Y-12659500D01*
X20659071Y-12645214D01*
X20716214Y-12645214D01*
X20744786Y-12659500D01*
X20759071Y-12688071D01*
X20759071Y-12716643D01*
X20616214Y-12745214D01*
X20873357Y-12830929D02*
X20901928Y-12845214D01*
X20959071Y-12845214D01*
X20987643Y-12830929D01*
X21001928Y-12802357D01*
X21001928Y-12788071D01*
X20987643Y-12759500D01*
X20959071Y-12745214D01*
X20916214Y-12745214D01*
X20887643Y-12730929D01*
X20873357Y-12702357D01*
X20873357Y-12688071D01*
X20887643Y-12659500D01*
X20916214Y-12645214D01*
X20959071Y-12645214D01*
X20987643Y-12659500D01*
X21101928Y-12959500D02*
X21116214Y-12945214D01*
X21144786Y-12902357D01*
X21159071Y-12873786D01*
X21173357Y-12830929D01*
X21187643Y-12759500D01*
X21187643Y-12702357D01*
X21173357Y-12630929D01*
X21159071Y-12588071D01*
X21144786Y-12559500D01*
X21116214Y-12516643D01*
X21101928Y-12502357D01*
M02*
