%TF.GenerationSoftware,KiCad,Pcbnew,(5.1.9)-1*%
%TF.CreationDate,2021-04-04T18:43:18-05:00*%
%TF.ProjectId,S-VIDEO PCB Breakout Horizontal,532d5649-4445-44f2-9050-434220427265,rev?*%
%TF.SameCoordinates,Original*%
%TF.FileFunction,Copper,L1,Top*%
%TF.FilePolarity,Positive*%
%FSLAX46Y46*%
G04 Gerber Fmt 4.6, Leading zero omitted, Abs format (unit mm)*
G04 Created by KiCad (PCBNEW (5.1.9)-1) date 2021-04-04 18:43:18*
%MOMM*%
%LPD*%
G01*
G04 APERTURE LIST*
%TA.AperFunction,ComponentPad*%
%ADD10C,3.465000*%
%TD*%
%TA.AperFunction,ComponentPad*%
%ADD11C,1.400000*%
%TD*%
%TA.AperFunction,ComponentPad*%
%ADD12O,1.700000X1.700000*%
%TD*%
%TA.AperFunction,ComponentPad*%
%ADD13R,1.700000X1.700000*%
%TD*%
%TA.AperFunction,Conductor*%
%ADD14C,1.000000*%
%TD*%
%TA.AperFunction,Conductor*%
%ADD15C,0.254000*%
%TD*%
%TA.AperFunction,Conductor*%
%ADD16C,0.100000*%
%TD*%
G04 APERTURE END LIST*
D10*
%TO.P,J1,MH3*%
%TO.N,/GND*%
X154050000Y-103960000D03*
%TO.P,J1,MH2*%
X153250000Y-110710000D03*
%TO.P,J1,MH1*%
X154050000Y-117460000D03*
D11*
%TO.P,J1,4*%
%TO.N,/CHROMA*%
X159550000Y-107310000D03*
%TO.P,J1,3*%
%TO.N,/LUMA*%
X159550000Y-114110000D03*
%TO.P,J1,2*%
%TO.N,/GND*%
X157050000Y-107310000D03*
%TO.P,J1,1*%
X157050000Y-114110000D03*
%TD*%
D12*
%TO.P,J2,3*%
%TO.N,/CHROMA*%
X142280000Y-113230000D03*
%TO.P,J2,2*%
%TO.N,/LUMA*%
X142280000Y-110690000D03*
D13*
%TO.P,J2,1*%
%TO.N,/GND*%
X142280000Y-108150000D03*
%TD*%
D14*
%TO.N,/CHROMA*%
X142280000Y-113230000D02*
X148250000Y-107260000D01*
X148250000Y-107260000D02*
X154270000Y-107260000D01*
X154270000Y-107260000D02*
X156560000Y-109550000D01*
X157310000Y-109550000D02*
X159550000Y-107310000D01*
X156560000Y-109550000D02*
X157310000Y-109550000D01*
%TD*%
D15*
%TO.N,/GND*%
X161930329Y-101519708D02*
X161939671Y-120259699D01*
X140640328Y-120250270D01*
X140640892Y-119117154D01*
X152572451Y-119117154D01*
X152756424Y-119456520D01*
X153170781Y-119670521D01*
X153618926Y-119799573D01*
X154083637Y-119838717D01*
X154547056Y-119786448D01*
X154991373Y-119644776D01*
X155343576Y-119456520D01*
X155527549Y-119117154D01*
X154050000Y-117639605D01*
X152572451Y-119117154D01*
X140640892Y-119117154D01*
X140641702Y-117493637D01*
X151671283Y-117493637D01*
X151723552Y-117957056D01*
X151865224Y-118401373D01*
X152053480Y-118753576D01*
X152392846Y-118937549D01*
X153870395Y-117460000D01*
X154229605Y-117460000D01*
X155707154Y-118937549D01*
X156046520Y-118753576D01*
X156260521Y-118339219D01*
X156389573Y-117891074D01*
X156428717Y-117426363D01*
X156376448Y-116962944D01*
X156234776Y-116518627D01*
X156046520Y-116166424D01*
X155707154Y-115982451D01*
X154229605Y-117460000D01*
X153870395Y-117460000D01*
X152392846Y-115982451D01*
X152053480Y-116166424D01*
X151839479Y-116580781D01*
X151710427Y-117028926D01*
X151671283Y-117493637D01*
X140641702Y-117493637D01*
X140642544Y-115802846D01*
X152572451Y-115802846D01*
X154050000Y-117280395D01*
X155527549Y-115802846D01*
X155343576Y-115463480D01*
X154929219Y-115249479D01*
X154481074Y-115120427D01*
X154016363Y-115081283D01*
X153552944Y-115133552D01*
X153108627Y-115275224D01*
X152756424Y-115463480D01*
X152572451Y-115802846D01*
X140642544Y-115802846D01*
X140642928Y-115031269D01*
X156308336Y-115031269D01*
X156367797Y-115265037D01*
X156606242Y-115375934D01*
X156861740Y-115438183D01*
X157124473Y-115449390D01*
X157384344Y-115409125D01*
X157631366Y-115318935D01*
X157732203Y-115265037D01*
X157791664Y-115031269D01*
X157050000Y-114289605D01*
X156308336Y-115031269D01*
X140642928Y-115031269D01*
X140645936Y-109000000D01*
X140791928Y-109000000D01*
X140804188Y-109124482D01*
X140840498Y-109244180D01*
X140899463Y-109354494D01*
X140978815Y-109451185D01*
X141075506Y-109530537D01*
X141185820Y-109589502D01*
X141258380Y-109611513D01*
X141126525Y-109743368D01*
X140964010Y-109986589D01*
X140852068Y-110256842D01*
X140795000Y-110543740D01*
X140795000Y-110836260D01*
X140852068Y-111123158D01*
X140964010Y-111393411D01*
X141126525Y-111636632D01*
X141333368Y-111843475D01*
X141507760Y-111960000D01*
X141333368Y-112076525D01*
X141126525Y-112283368D01*
X140964010Y-112526589D01*
X140852068Y-112796842D01*
X140795000Y-113083740D01*
X140795000Y-113376260D01*
X140852068Y-113663158D01*
X140964010Y-113933411D01*
X141126525Y-114176632D01*
X141333368Y-114383475D01*
X141576589Y-114545990D01*
X141846842Y-114657932D01*
X142133740Y-114715000D01*
X142426260Y-114715000D01*
X142713158Y-114657932D01*
X142983411Y-114545990D01*
X143226632Y-114383475D01*
X143425634Y-114184473D01*
X155710610Y-114184473D01*
X155750875Y-114444344D01*
X155841065Y-114691366D01*
X155894963Y-114792203D01*
X156128731Y-114851664D01*
X156870395Y-114110000D01*
X157229605Y-114110000D01*
X157971269Y-114851664D01*
X158205037Y-114792203D01*
X158301592Y-114584596D01*
X158366939Y-114742359D01*
X158513038Y-114961013D01*
X158698987Y-115146962D01*
X158917641Y-115293061D01*
X159160595Y-115393696D01*
X159418514Y-115445000D01*
X159681486Y-115445000D01*
X159939405Y-115393696D01*
X160182359Y-115293061D01*
X160401013Y-115146962D01*
X160586962Y-114961013D01*
X160733061Y-114742359D01*
X160833696Y-114499405D01*
X160885000Y-114241486D01*
X160885000Y-113978514D01*
X160833696Y-113720595D01*
X160733061Y-113477641D01*
X160586962Y-113258987D01*
X160401013Y-113073038D01*
X160182359Y-112926939D01*
X159939405Y-112826304D01*
X159681486Y-112775000D01*
X159418514Y-112775000D01*
X159160595Y-112826304D01*
X158917641Y-112926939D01*
X158698987Y-113073038D01*
X158513038Y-113258987D01*
X158366939Y-113477641D01*
X158299639Y-113640118D01*
X158258935Y-113528634D01*
X158205037Y-113427797D01*
X157971269Y-113368336D01*
X157229605Y-114110000D01*
X156870395Y-114110000D01*
X156128731Y-113368336D01*
X155894963Y-113427797D01*
X155784066Y-113666242D01*
X155721817Y-113921740D01*
X155710610Y-114184473D01*
X143425634Y-114184473D01*
X143433475Y-114176632D01*
X143595990Y-113933411D01*
X143707932Y-113663158D01*
X143765000Y-113376260D01*
X143765000Y-113350131D01*
X143926400Y-113188731D01*
X156308336Y-113188731D01*
X157050000Y-113930395D01*
X157791664Y-113188731D01*
X157732203Y-112954963D01*
X157493758Y-112844066D01*
X157238260Y-112781817D01*
X156975527Y-112770610D01*
X156715656Y-112810875D01*
X156468634Y-112901065D01*
X156367797Y-112954963D01*
X156308336Y-113188731D01*
X143926400Y-113188731D01*
X144747977Y-112367154D01*
X151772451Y-112367154D01*
X151956424Y-112706520D01*
X152370781Y-112920521D01*
X152818926Y-113049573D01*
X153283637Y-113088717D01*
X153747056Y-113036448D01*
X154191373Y-112894776D01*
X154543576Y-112706520D01*
X154727549Y-112367154D01*
X153250000Y-110889605D01*
X151772451Y-112367154D01*
X144747977Y-112367154D01*
X146371494Y-110743637D01*
X150871283Y-110743637D01*
X150923552Y-111207056D01*
X151065224Y-111651373D01*
X151253480Y-112003576D01*
X151592846Y-112187549D01*
X153070395Y-110710000D01*
X151592846Y-109232451D01*
X151253480Y-109416424D01*
X151039479Y-109830781D01*
X150910427Y-110278926D01*
X150871283Y-110743637D01*
X146371494Y-110743637D01*
X148720132Y-108395000D01*
X152717040Y-108395000D01*
X152308627Y-108525224D01*
X151956424Y-108713480D01*
X151772451Y-109052846D01*
X153250000Y-110530395D01*
X153264143Y-110516253D01*
X153443748Y-110695858D01*
X153429605Y-110710000D01*
X154907154Y-112187549D01*
X155246520Y-112003576D01*
X155460521Y-111589219D01*
X155589573Y-111141074D01*
X155628717Y-110676363D01*
X155576448Y-110212944D01*
X155557085Y-110152217D01*
X155718009Y-110313141D01*
X155753551Y-110356449D01*
X155926377Y-110498284D01*
X156123553Y-110603676D01*
X156337501Y-110668577D01*
X156559999Y-110690491D01*
X156615751Y-110685000D01*
X157254249Y-110685000D01*
X157310000Y-110690491D01*
X157365751Y-110685000D01*
X157365752Y-110685000D01*
X157532499Y-110668577D01*
X157746447Y-110603676D01*
X157943623Y-110498284D01*
X158116449Y-110356449D01*
X158151996Y-110313135D01*
X159854559Y-108610573D01*
X159939405Y-108593696D01*
X160182359Y-108493061D01*
X160401013Y-108346962D01*
X160586962Y-108161013D01*
X160733061Y-107942359D01*
X160833696Y-107699405D01*
X160885000Y-107441486D01*
X160885000Y-107178514D01*
X160833696Y-106920595D01*
X160733061Y-106677641D01*
X160586962Y-106458987D01*
X160401013Y-106273038D01*
X160182359Y-106126939D01*
X159939405Y-106026304D01*
X159681486Y-105975000D01*
X159418514Y-105975000D01*
X159160595Y-106026304D01*
X158917641Y-106126939D01*
X158698987Y-106273038D01*
X158513038Y-106458987D01*
X158366939Y-106677641D01*
X158299639Y-106840118D01*
X158258935Y-106728634D01*
X158205037Y-106627797D01*
X157971269Y-106568336D01*
X157229605Y-107310000D01*
X157243748Y-107324143D01*
X157064143Y-107503748D01*
X157050000Y-107489605D01*
X157035858Y-107503748D01*
X156856253Y-107324143D01*
X156870395Y-107310000D01*
X156128731Y-106568336D01*
X155894963Y-106627797D01*
X155784066Y-106866242D01*
X155724766Y-107109635D01*
X155111996Y-106496865D01*
X155076449Y-106453551D01*
X154997466Y-106388731D01*
X156308336Y-106388731D01*
X157050000Y-107130395D01*
X157791664Y-106388731D01*
X157732203Y-106154963D01*
X157493758Y-106044066D01*
X157238260Y-105981817D01*
X156975527Y-105970610D01*
X156715656Y-106010875D01*
X156468634Y-106101065D01*
X156367797Y-106154963D01*
X156308336Y-106388731D01*
X154997466Y-106388731D01*
X154903623Y-106311716D01*
X154740784Y-106224677D01*
X154991373Y-106144776D01*
X155343576Y-105956520D01*
X155527549Y-105617154D01*
X154050000Y-104139605D01*
X152572451Y-105617154D01*
X152756424Y-105956520D01*
X153082641Y-106125000D01*
X148305751Y-106125000D01*
X148250000Y-106119509D01*
X148194248Y-106125000D01*
X148027501Y-106141423D01*
X147813553Y-106206324D01*
X147616377Y-106311716D01*
X147443551Y-106453551D01*
X147408009Y-106496859D01*
X143690386Y-110214482D01*
X143595990Y-109986589D01*
X143433475Y-109743368D01*
X143301620Y-109611513D01*
X143374180Y-109589502D01*
X143484494Y-109530537D01*
X143581185Y-109451185D01*
X143660537Y-109354494D01*
X143719502Y-109244180D01*
X143755812Y-109124482D01*
X143768072Y-109000000D01*
X143765000Y-108435750D01*
X143606250Y-108277000D01*
X142407000Y-108277000D01*
X142407000Y-108297000D01*
X142153000Y-108297000D01*
X142153000Y-108277000D01*
X140953750Y-108277000D01*
X140795000Y-108435750D01*
X140791928Y-109000000D01*
X140645936Y-109000000D01*
X140646783Y-107300000D01*
X140791928Y-107300000D01*
X140795000Y-107864250D01*
X140953750Y-108023000D01*
X142153000Y-108023000D01*
X142153000Y-106823750D01*
X142407000Y-106823750D01*
X142407000Y-108023000D01*
X143606250Y-108023000D01*
X143765000Y-107864250D01*
X143768072Y-107300000D01*
X143755812Y-107175518D01*
X143719502Y-107055820D01*
X143660537Y-106945506D01*
X143581185Y-106848815D01*
X143484494Y-106769463D01*
X143374180Y-106710498D01*
X143254482Y-106674188D01*
X143130000Y-106661928D01*
X142565750Y-106665000D01*
X142407000Y-106823750D01*
X142153000Y-106823750D01*
X141994250Y-106665000D01*
X141430000Y-106661928D01*
X141305518Y-106674188D01*
X141185820Y-106710498D01*
X141075506Y-106769463D01*
X140978815Y-106848815D01*
X140899463Y-106945506D01*
X140840498Y-107055820D01*
X140804188Y-107175518D01*
X140791928Y-107300000D01*
X140646783Y-107300000D01*
X140648432Y-103993637D01*
X151671283Y-103993637D01*
X151723552Y-104457056D01*
X151865224Y-104901373D01*
X152053480Y-105253576D01*
X152392846Y-105437549D01*
X153870395Y-103960000D01*
X154229605Y-103960000D01*
X155707154Y-105437549D01*
X156046520Y-105253576D01*
X156260521Y-104839219D01*
X156389573Y-104391074D01*
X156428717Y-103926363D01*
X156376448Y-103462944D01*
X156234776Y-103018627D01*
X156046520Y-102666424D01*
X155707154Y-102482451D01*
X154229605Y-103960000D01*
X153870395Y-103960000D01*
X152392846Y-102482451D01*
X152053480Y-102666424D01*
X151839479Y-103080781D01*
X151710427Y-103528926D01*
X151671283Y-103993637D01*
X140648432Y-103993637D01*
X140649275Y-102302846D01*
X152572451Y-102302846D01*
X154050000Y-103780395D01*
X155527549Y-102302846D01*
X155343576Y-101963480D01*
X154929219Y-101749479D01*
X154481074Y-101620427D01*
X154016363Y-101581283D01*
X153552944Y-101633552D01*
X153108627Y-101775224D01*
X152756424Y-101963480D01*
X152572451Y-102302846D01*
X140649275Y-102302846D01*
X140649671Y-101510291D01*
X161930329Y-101519708D01*
%TA.AperFunction,Conductor*%
D16*
G36*
X161930329Y-101519708D02*
G01*
X161939671Y-120259699D01*
X140640328Y-120250270D01*
X140640892Y-119117154D01*
X152572451Y-119117154D01*
X152756424Y-119456520D01*
X153170781Y-119670521D01*
X153618926Y-119799573D01*
X154083637Y-119838717D01*
X154547056Y-119786448D01*
X154991373Y-119644776D01*
X155343576Y-119456520D01*
X155527549Y-119117154D01*
X154050000Y-117639605D01*
X152572451Y-119117154D01*
X140640892Y-119117154D01*
X140641702Y-117493637D01*
X151671283Y-117493637D01*
X151723552Y-117957056D01*
X151865224Y-118401373D01*
X152053480Y-118753576D01*
X152392846Y-118937549D01*
X153870395Y-117460000D01*
X154229605Y-117460000D01*
X155707154Y-118937549D01*
X156046520Y-118753576D01*
X156260521Y-118339219D01*
X156389573Y-117891074D01*
X156428717Y-117426363D01*
X156376448Y-116962944D01*
X156234776Y-116518627D01*
X156046520Y-116166424D01*
X155707154Y-115982451D01*
X154229605Y-117460000D01*
X153870395Y-117460000D01*
X152392846Y-115982451D01*
X152053480Y-116166424D01*
X151839479Y-116580781D01*
X151710427Y-117028926D01*
X151671283Y-117493637D01*
X140641702Y-117493637D01*
X140642544Y-115802846D01*
X152572451Y-115802846D01*
X154050000Y-117280395D01*
X155527549Y-115802846D01*
X155343576Y-115463480D01*
X154929219Y-115249479D01*
X154481074Y-115120427D01*
X154016363Y-115081283D01*
X153552944Y-115133552D01*
X153108627Y-115275224D01*
X152756424Y-115463480D01*
X152572451Y-115802846D01*
X140642544Y-115802846D01*
X140642928Y-115031269D01*
X156308336Y-115031269D01*
X156367797Y-115265037D01*
X156606242Y-115375934D01*
X156861740Y-115438183D01*
X157124473Y-115449390D01*
X157384344Y-115409125D01*
X157631366Y-115318935D01*
X157732203Y-115265037D01*
X157791664Y-115031269D01*
X157050000Y-114289605D01*
X156308336Y-115031269D01*
X140642928Y-115031269D01*
X140645936Y-109000000D01*
X140791928Y-109000000D01*
X140804188Y-109124482D01*
X140840498Y-109244180D01*
X140899463Y-109354494D01*
X140978815Y-109451185D01*
X141075506Y-109530537D01*
X141185820Y-109589502D01*
X141258380Y-109611513D01*
X141126525Y-109743368D01*
X140964010Y-109986589D01*
X140852068Y-110256842D01*
X140795000Y-110543740D01*
X140795000Y-110836260D01*
X140852068Y-111123158D01*
X140964010Y-111393411D01*
X141126525Y-111636632D01*
X141333368Y-111843475D01*
X141507760Y-111960000D01*
X141333368Y-112076525D01*
X141126525Y-112283368D01*
X140964010Y-112526589D01*
X140852068Y-112796842D01*
X140795000Y-113083740D01*
X140795000Y-113376260D01*
X140852068Y-113663158D01*
X140964010Y-113933411D01*
X141126525Y-114176632D01*
X141333368Y-114383475D01*
X141576589Y-114545990D01*
X141846842Y-114657932D01*
X142133740Y-114715000D01*
X142426260Y-114715000D01*
X142713158Y-114657932D01*
X142983411Y-114545990D01*
X143226632Y-114383475D01*
X143425634Y-114184473D01*
X155710610Y-114184473D01*
X155750875Y-114444344D01*
X155841065Y-114691366D01*
X155894963Y-114792203D01*
X156128731Y-114851664D01*
X156870395Y-114110000D01*
X157229605Y-114110000D01*
X157971269Y-114851664D01*
X158205037Y-114792203D01*
X158301592Y-114584596D01*
X158366939Y-114742359D01*
X158513038Y-114961013D01*
X158698987Y-115146962D01*
X158917641Y-115293061D01*
X159160595Y-115393696D01*
X159418514Y-115445000D01*
X159681486Y-115445000D01*
X159939405Y-115393696D01*
X160182359Y-115293061D01*
X160401013Y-115146962D01*
X160586962Y-114961013D01*
X160733061Y-114742359D01*
X160833696Y-114499405D01*
X160885000Y-114241486D01*
X160885000Y-113978514D01*
X160833696Y-113720595D01*
X160733061Y-113477641D01*
X160586962Y-113258987D01*
X160401013Y-113073038D01*
X160182359Y-112926939D01*
X159939405Y-112826304D01*
X159681486Y-112775000D01*
X159418514Y-112775000D01*
X159160595Y-112826304D01*
X158917641Y-112926939D01*
X158698987Y-113073038D01*
X158513038Y-113258987D01*
X158366939Y-113477641D01*
X158299639Y-113640118D01*
X158258935Y-113528634D01*
X158205037Y-113427797D01*
X157971269Y-113368336D01*
X157229605Y-114110000D01*
X156870395Y-114110000D01*
X156128731Y-113368336D01*
X155894963Y-113427797D01*
X155784066Y-113666242D01*
X155721817Y-113921740D01*
X155710610Y-114184473D01*
X143425634Y-114184473D01*
X143433475Y-114176632D01*
X143595990Y-113933411D01*
X143707932Y-113663158D01*
X143765000Y-113376260D01*
X143765000Y-113350131D01*
X143926400Y-113188731D01*
X156308336Y-113188731D01*
X157050000Y-113930395D01*
X157791664Y-113188731D01*
X157732203Y-112954963D01*
X157493758Y-112844066D01*
X157238260Y-112781817D01*
X156975527Y-112770610D01*
X156715656Y-112810875D01*
X156468634Y-112901065D01*
X156367797Y-112954963D01*
X156308336Y-113188731D01*
X143926400Y-113188731D01*
X144747977Y-112367154D01*
X151772451Y-112367154D01*
X151956424Y-112706520D01*
X152370781Y-112920521D01*
X152818926Y-113049573D01*
X153283637Y-113088717D01*
X153747056Y-113036448D01*
X154191373Y-112894776D01*
X154543576Y-112706520D01*
X154727549Y-112367154D01*
X153250000Y-110889605D01*
X151772451Y-112367154D01*
X144747977Y-112367154D01*
X146371494Y-110743637D01*
X150871283Y-110743637D01*
X150923552Y-111207056D01*
X151065224Y-111651373D01*
X151253480Y-112003576D01*
X151592846Y-112187549D01*
X153070395Y-110710000D01*
X151592846Y-109232451D01*
X151253480Y-109416424D01*
X151039479Y-109830781D01*
X150910427Y-110278926D01*
X150871283Y-110743637D01*
X146371494Y-110743637D01*
X148720132Y-108395000D01*
X152717040Y-108395000D01*
X152308627Y-108525224D01*
X151956424Y-108713480D01*
X151772451Y-109052846D01*
X153250000Y-110530395D01*
X153264143Y-110516253D01*
X153443748Y-110695858D01*
X153429605Y-110710000D01*
X154907154Y-112187549D01*
X155246520Y-112003576D01*
X155460521Y-111589219D01*
X155589573Y-111141074D01*
X155628717Y-110676363D01*
X155576448Y-110212944D01*
X155557085Y-110152217D01*
X155718009Y-110313141D01*
X155753551Y-110356449D01*
X155926377Y-110498284D01*
X156123553Y-110603676D01*
X156337501Y-110668577D01*
X156559999Y-110690491D01*
X156615751Y-110685000D01*
X157254249Y-110685000D01*
X157310000Y-110690491D01*
X157365751Y-110685000D01*
X157365752Y-110685000D01*
X157532499Y-110668577D01*
X157746447Y-110603676D01*
X157943623Y-110498284D01*
X158116449Y-110356449D01*
X158151996Y-110313135D01*
X159854559Y-108610573D01*
X159939405Y-108593696D01*
X160182359Y-108493061D01*
X160401013Y-108346962D01*
X160586962Y-108161013D01*
X160733061Y-107942359D01*
X160833696Y-107699405D01*
X160885000Y-107441486D01*
X160885000Y-107178514D01*
X160833696Y-106920595D01*
X160733061Y-106677641D01*
X160586962Y-106458987D01*
X160401013Y-106273038D01*
X160182359Y-106126939D01*
X159939405Y-106026304D01*
X159681486Y-105975000D01*
X159418514Y-105975000D01*
X159160595Y-106026304D01*
X158917641Y-106126939D01*
X158698987Y-106273038D01*
X158513038Y-106458987D01*
X158366939Y-106677641D01*
X158299639Y-106840118D01*
X158258935Y-106728634D01*
X158205037Y-106627797D01*
X157971269Y-106568336D01*
X157229605Y-107310000D01*
X157243748Y-107324143D01*
X157064143Y-107503748D01*
X157050000Y-107489605D01*
X157035858Y-107503748D01*
X156856253Y-107324143D01*
X156870395Y-107310000D01*
X156128731Y-106568336D01*
X155894963Y-106627797D01*
X155784066Y-106866242D01*
X155724766Y-107109635D01*
X155111996Y-106496865D01*
X155076449Y-106453551D01*
X154997466Y-106388731D01*
X156308336Y-106388731D01*
X157050000Y-107130395D01*
X157791664Y-106388731D01*
X157732203Y-106154963D01*
X157493758Y-106044066D01*
X157238260Y-105981817D01*
X156975527Y-105970610D01*
X156715656Y-106010875D01*
X156468634Y-106101065D01*
X156367797Y-106154963D01*
X156308336Y-106388731D01*
X154997466Y-106388731D01*
X154903623Y-106311716D01*
X154740784Y-106224677D01*
X154991373Y-106144776D01*
X155343576Y-105956520D01*
X155527549Y-105617154D01*
X154050000Y-104139605D01*
X152572451Y-105617154D01*
X152756424Y-105956520D01*
X153082641Y-106125000D01*
X148305751Y-106125000D01*
X148250000Y-106119509D01*
X148194248Y-106125000D01*
X148027501Y-106141423D01*
X147813553Y-106206324D01*
X147616377Y-106311716D01*
X147443551Y-106453551D01*
X147408009Y-106496859D01*
X143690386Y-110214482D01*
X143595990Y-109986589D01*
X143433475Y-109743368D01*
X143301620Y-109611513D01*
X143374180Y-109589502D01*
X143484494Y-109530537D01*
X143581185Y-109451185D01*
X143660537Y-109354494D01*
X143719502Y-109244180D01*
X143755812Y-109124482D01*
X143768072Y-109000000D01*
X143765000Y-108435750D01*
X143606250Y-108277000D01*
X142407000Y-108277000D01*
X142407000Y-108297000D01*
X142153000Y-108297000D01*
X142153000Y-108277000D01*
X140953750Y-108277000D01*
X140795000Y-108435750D01*
X140791928Y-109000000D01*
X140645936Y-109000000D01*
X140646783Y-107300000D01*
X140791928Y-107300000D01*
X140795000Y-107864250D01*
X140953750Y-108023000D01*
X142153000Y-108023000D01*
X142153000Y-106823750D01*
X142407000Y-106823750D01*
X142407000Y-108023000D01*
X143606250Y-108023000D01*
X143765000Y-107864250D01*
X143768072Y-107300000D01*
X143755812Y-107175518D01*
X143719502Y-107055820D01*
X143660537Y-106945506D01*
X143581185Y-106848815D01*
X143484494Y-106769463D01*
X143374180Y-106710498D01*
X143254482Y-106674188D01*
X143130000Y-106661928D01*
X142565750Y-106665000D01*
X142407000Y-106823750D01*
X142153000Y-106823750D01*
X141994250Y-106665000D01*
X141430000Y-106661928D01*
X141305518Y-106674188D01*
X141185820Y-106710498D01*
X141075506Y-106769463D01*
X140978815Y-106848815D01*
X140899463Y-106945506D01*
X140840498Y-107055820D01*
X140804188Y-107175518D01*
X140791928Y-107300000D01*
X140646783Y-107300000D01*
X140648432Y-103993637D01*
X151671283Y-103993637D01*
X151723552Y-104457056D01*
X151865224Y-104901373D01*
X152053480Y-105253576D01*
X152392846Y-105437549D01*
X153870395Y-103960000D01*
X154229605Y-103960000D01*
X155707154Y-105437549D01*
X156046520Y-105253576D01*
X156260521Y-104839219D01*
X156389573Y-104391074D01*
X156428717Y-103926363D01*
X156376448Y-103462944D01*
X156234776Y-103018627D01*
X156046520Y-102666424D01*
X155707154Y-102482451D01*
X154229605Y-103960000D01*
X153870395Y-103960000D01*
X152392846Y-102482451D01*
X152053480Y-102666424D01*
X151839479Y-103080781D01*
X151710427Y-103528926D01*
X151671283Y-103993637D01*
X140648432Y-103993637D01*
X140649275Y-102302846D01*
X152572451Y-102302846D01*
X154050000Y-103780395D01*
X155527549Y-102302846D01*
X155343576Y-101963480D01*
X154929219Y-101749479D01*
X154481074Y-101620427D01*
X154016363Y-101581283D01*
X153552944Y-101633552D01*
X153108627Y-101775224D01*
X152756424Y-101963480D01*
X152572451Y-102302846D01*
X140649275Y-102302846D01*
X140649671Y-101510291D01*
X161930329Y-101519708D01*
G37*
%TD.AperFunction*%
%TD*%
M02*
