%TF.GenerationSoftware,KiCad,Pcbnew,(5.1.9)-1*%
%TF.CreationDate,2021-04-04T18:43:18-05:00*%
%TF.ProjectId,S-VIDEO PCB Breakout Horizontal,532d5649-4445-44f2-9050-434220427265,rev?*%
%TF.SameCoordinates,Original*%
%TF.FileFunction,Copper,L2,Bot*%
%TF.FilePolarity,Positive*%
%FSLAX46Y46*%
G04 Gerber Fmt 4.6, Leading zero omitted, Abs format (unit mm)*
G04 Created by KiCad (PCBNEW (5.1.9)-1) date 2021-04-04 18:43:18*
%MOMM*%
%LPD*%
G01*
G04 APERTURE LIST*
%TA.AperFunction,ComponentPad*%
%ADD10C,3.465000*%
%TD*%
%TA.AperFunction,ComponentPad*%
%ADD11C,1.400000*%
%TD*%
%TA.AperFunction,ComponentPad*%
%ADD12O,1.700000X1.700000*%
%TD*%
%TA.AperFunction,ComponentPad*%
%ADD13R,1.700000X1.700000*%
%TD*%
%TA.AperFunction,Conductor*%
%ADD14C,1.000000*%
%TD*%
%TA.AperFunction,Conductor*%
%ADD15C,0.254000*%
%TD*%
%TA.AperFunction,Conductor*%
%ADD16C,0.100000*%
%TD*%
G04 APERTURE END LIST*
D10*
%TO.P,J1,MH3*%
%TO.N,/GND*%
X154050000Y-103960000D03*
%TO.P,J1,MH2*%
X153250000Y-110710000D03*
%TO.P,J1,MH1*%
X154050000Y-117460000D03*
D11*
%TO.P,J1,4*%
%TO.N,/CHROMA*%
X159550000Y-107310000D03*
%TO.P,J1,3*%
%TO.N,/LUMA*%
X159550000Y-114110000D03*
%TO.P,J1,2*%
%TO.N,/GND*%
X157050000Y-107310000D03*
%TO.P,J1,1*%
X157050000Y-114110000D03*
%TD*%
D12*
%TO.P,J2,3*%
%TO.N,/CHROMA*%
X142280000Y-113230000D03*
%TO.P,J2,2*%
%TO.N,/LUMA*%
X142280000Y-110690000D03*
D13*
%TO.P,J2,1*%
%TO.N,/GND*%
X142280000Y-108150000D03*
%TD*%
D14*
%TO.N,/LUMA*%
X159550000Y-114110000D02*
X159550000Y-120020000D01*
X151345654Y-120190000D02*
X151315654Y-120160000D01*
X159380000Y-120190000D02*
X151345654Y-120190000D01*
X159550000Y-120020000D02*
X159380000Y-120190000D01*
X151315654Y-119725654D02*
X142280000Y-110690000D01*
X151315654Y-120160000D02*
X151315654Y-119725654D01*
%TD*%
D15*
%TO.N,/GND*%
X161930329Y-101519708D02*
X161939671Y-120259699D01*
X160663531Y-120259134D01*
X160668577Y-120242499D01*
X160685000Y-120075752D01*
X160685000Y-120075742D01*
X160690490Y-120020001D01*
X160685000Y-119964259D01*
X160685000Y-114814288D01*
X160733061Y-114742359D01*
X160833696Y-114499405D01*
X160885000Y-114241486D01*
X160885000Y-113978514D01*
X160833696Y-113720595D01*
X160733061Y-113477641D01*
X160586962Y-113258987D01*
X160401013Y-113073038D01*
X160182359Y-112926939D01*
X159939405Y-112826304D01*
X159681486Y-112775000D01*
X159418514Y-112775000D01*
X159160595Y-112826304D01*
X158917641Y-112926939D01*
X158698987Y-113073038D01*
X158513038Y-113258987D01*
X158366939Y-113477641D01*
X158299639Y-113640118D01*
X158258935Y-113528634D01*
X158205037Y-113427797D01*
X157971269Y-113368336D01*
X157229605Y-114110000D01*
X157971269Y-114851664D01*
X158205037Y-114792203D01*
X158301592Y-114584596D01*
X158366939Y-114742359D01*
X158415000Y-114814288D01*
X158415001Y-119055000D01*
X155818482Y-119055000D01*
X155821545Y-119051937D01*
X155707156Y-118937548D01*
X156046520Y-118753576D01*
X156260521Y-118339219D01*
X156389573Y-117891074D01*
X156428717Y-117426363D01*
X156376448Y-116962944D01*
X156234776Y-116518627D01*
X156046520Y-116166424D01*
X155707154Y-115982451D01*
X154229605Y-117460000D01*
X154243748Y-117474143D01*
X154064143Y-117653748D01*
X154050000Y-117639605D01*
X154035858Y-117653748D01*
X153856253Y-117474143D01*
X153870395Y-117460000D01*
X152392846Y-115982451D01*
X152053480Y-116166424D01*
X151839479Y-116580781D01*
X151710427Y-117028926D01*
X151671283Y-117493637D01*
X151723552Y-117957056D01*
X151865224Y-118401373D01*
X152053480Y-118753576D01*
X152392844Y-118937548D01*
X152278455Y-119051937D01*
X152281518Y-119055000D01*
X152233547Y-119055000D01*
X152122103Y-118919205D01*
X152078795Y-118883663D01*
X148997978Y-115802846D01*
X152572451Y-115802846D01*
X154050000Y-117280395D01*
X155527549Y-115802846D01*
X155343576Y-115463480D01*
X154929219Y-115249479D01*
X154481074Y-115120427D01*
X154016363Y-115081283D01*
X153552944Y-115133552D01*
X153108627Y-115275224D01*
X152756424Y-115463480D01*
X152572451Y-115802846D01*
X148997978Y-115802846D01*
X148226401Y-115031269D01*
X156308336Y-115031269D01*
X156367797Y-115265037D01*
X156606242Y-115375934D01*
X156861740Y-115438183D01*
X157124473Y-115449390D01*
X157384344Y-115409125D01*
X157631366Y-115318935D01*
X157732203Y-115265037D01*
X157791664Y-115031269D01*
X157050000Y-114289605D01*
X156308336Y-115031269D01*
X148226401Y-115031269D01*
X147379605Y-114184473D01*
X155710610Y-114184473D01*
X155750875Y-114444344D01*
X155841065Y-114691366D01*
X155894963Y-114792203D01*
X156128731Y-114851664D01*
X156870395Y-114110000D01*
X156128731Y-113368336D01*
X155894963Y-113427797D01*
X155784066Y-113666242D01*
X155721817Y-113921740D01*
X155710610Y-114184473D01*
X147379605Y-114184473D01*
X146383863Y-113188731D01*
X156308336Y-113188731D01*
X157050000Y-113930395D01*
X157791664Y-113188731D01*
X157732203Y-112954963D01*
X157493758Y-112844066D01*
X157238260Y-112781817D01*
X156975527Y-112770610D01*
X156715656Y-112810875D01*
X156468634Y-112901065D01*
X156367797Y-112954963D01*
X156308336Y-113188731D01*
X146383863Y-113188731D01*
X145562286Y-112367154D01*
X151772451Y-112367154D01*
X151956424Y-112706520D01*
X152370781Y-112920521D01*
X152818926Y-113049573D01*
X153283637Y-113088717D01*
X153747056Y-113036448D01*
X154191373Y-112894776D01*
X154543576Y-112706520D01*
X154727549Y-112367154D01*
X153250000Y-110889605D01*
X151772451Y-112367154D01*
X145562286Y-112367154D01*
X143938769Y-110743637D01*
X150871283Y-110743637D01*
X150923552Y-111207056D01*
X151065224Y-111651373D01*
X151253480Y-112003576D01*
X151592846Y-112187549D01*
X153070395Y-110710000D01*
X153429605Y-110710000D01*
X154907154Y-112187549D01*
X155246520Y-112003576D01*
X155460521Y-111589219D01*
X155589573Y-111141074D01*
X155628717Y-110676363D01*
X155576448Y-110212944D01*
X155434776Y-109768627D01*
X155246520Y-109416424D01*
X154907154Y-109232451D01*
X153429605Y-110710000D01*
X153070395Y-110710000D01*
X151592846Y-109232451D01*
X151253480Y-109416424D01*
X151039479Y-109830781D01*
X150910427Y-110278926D01*
X150871283Y-110743637D01*
X143938769Y-110743637D01*
X143765000Y-110569869D01*
X143765000Y-110543740D01*
X143707932Y-110256842D01*
X143595990Y-109986589D01*
X143433475Y-109743368D01*
X143301620Y-109611513D01*
X143374180Y-109589502D01*
X143484494Y-109530537D01*
X143581185Y-109451185D01*
X143660537Y-109354494D01*
X143719502Y-109244180D01*
X143755812Y-109124482D01*
X143762867Y-109052846D01*
X151772451Y-109052846D01*
X153250000Y-110530395D01*
X154727549Y-109052846D01*
X154543576Y-108713480D01*
X154129219Y-108499479D01*
X153681074Y-108370427D01*
X153216363Y-108331283D01*
X152752944Y-108383552D01*
X152308627Y-108525224D01*
X151956424Y-108713480D01*
X151772451Y-109052846D01*
X143762867Y-109052846D01*
X143768072Y-109000000D01*
X143765000Y-108435750D01*
X143606250Y-108277000D01*
X142407000Y-108277000D01*
X142407000Y-108297000D01*
X142153000Y-108297000D01*
X142153000Y-108277000D01*
X140953750Y-108277000D01*
X140795000Y-108435750D01*
X140791928Y-109000000D01*
X140804188Y-109124482D01*
X140840498Y-109244180D01*
X140899463Y-109354494D01*
X140978815Y-109451185D01*
X141075506Y-109530537D01*
X141185820Y-109589502D01*
X141258380Y-109611513D01*
X141126525Y-109743368D01*
X140964010Y-109986589D01*
X140852068Y-110256842D01*
X140795000Y-110543740D01*
X140795000Y-110836260D01*
X140852068Y-111123158D01*
X140964010Y-111393411D01*
X141126525Y-111636632D01*
X141333368Y-111843475D01*
X141507760Y-111960000D01*
X141333368Y-112076525D01*
X141126525Y-112283368D01*
X140964010Y-112526589D01*
X140852068Y-112796842D01*
X140795000Y-113083740D01*
X140795000Y-113376260D01*
X140852068Y-113663158D01*
X140964010Y-113933411D01*
X141126525Y-114176632D01*
X141333368Y-114383475D01*
X141576589Y-114545990D01*
X141846842Y-114657932D01*
X142133740Y-114715000D01*
X142426260Y-114715000D01*
X142713158Y-114657932D01*
X142983411Y-114545990D01*
X143226632Y-114383475D01*
X143433475Y-114176632D01*
X143595990Y-113933411D01*
X143690386Y-113705517D01*
X150178473Y-120193605D01*
X150180654Y-120215751D01*
X150184470Y-120254495D01*
X140640328Y-120250270D01*
X140646319Y-108231269D01*
X156308336Y-108231269D01*
X156367797Y-108465037D01*
X156606242Y-108575934D01*
X156861740Y-108638183D01*
X157124473Y-108649390D01*
X157384344Y-108609125D01*
X157631366Y-108518935D01*
X157732203Y-108465037D01*
X157791664Y-108231269D01*
X157050000Y-107489605D01*
X156308336Y-108231269D01*
X140646319Y-108231269D01*
X140646784Y-107300000D01*
X140791928Y-107300000D01*
X140795000Y-107864250D01*
X140953750Y-108023000D01*
X142153000Y-108023000D01*
X142153000Y-106823750D01*
X142407000Y-106823750D01*
X142407000Y-108023000D01*
X143606250Y-108023000D01*
X143765000Y-107864250D01*
X143767612Y-107384473D01*
X155710610Y-107384473D01*
X155750875Y-107644344D01*
X155841065Y-107891366D01*
X155894963Y-107992203D01*
X156128731Y-108051664D01*
X156870395Y-107310000D01*
X157229605Y-107310000D01*
X157971269Y-108051664D01*
X158205037Y-107992203D01*
X158301592Y-107784596D01*
X158366939Y-107942359D01*
X158513038Y-108161013D01*
X158698987Y-108346962D01*
X158917641Y-108493061D01*
X159160595Y-108593696D01*
X159418514Y-108645000D01*
X159681486Y-108645000D01*
X159939405Y-108593696D01*
X160182359Y-108493061D01*
X160401013Y-108346962D01*
X160586962Y-108161013D01*
X160733061Y-107942359D01*
X160833696Y-107699405D01*
X160885000Y-107441486D01*
X160885000Y-107178514D01*
X160833696Y-106920595D01*
X160733061Y-106677641D01*
X160586962Y-106458987D01*
X160401013Y-106273038D01*
X160182359Y-106126939D01*
X159939405Y-106026304D01*
X159681486Y-105975000D01*
X159418514Y-105975000D01*
X159160595Y-106026304D01*
X158917641Y-106126939D01*
X158698987Y-106273038D01*
X158513038Y-106458987D01*
X158366939Y-106677641D01*
X158299639Y-106840118D01*
X158258935Y-106728634D01*
X158205037Y-106627797D01*
X157971269Y-106568336D01*
X157229605Y-107310000D01*
X156870395Y-107310000D01*
X156128731Y-106568336D01*
X155894963Y-106627797D01*
X155784066Y-106866242D01*
X155721817Y-107121740D01*
X155710610Y-107384473D01*
X143767612Y-107384473D01*
X143768072Y-107300000D01*
X143755812Y-107175518D01*
X143719502Y-107055820D01*
X143660537Y-106945506D01*
X143581185Y-106848815D01*
X143484494Y-106769463D01*
X143374180Y-106710498D01*
X143254482Y-106674188D01*
X143130000Y-106661928D01*
X142565750Y-106665000D01*
X142407000Y-106823750D01*
X142153000Y-106823750D01*
X141994250Y-106665000D01*
X141430000Y-106661928D01*
X141305518Y-106674188D01*
X141185820Y-106710498D01*
X141075506Y-106769463D01*
X140978815Y-106848815D01*
X140899463Y-106945506D01*
X140840498Y-107055820D01*
X140804188Y-107175518D01*
X140791928Y-107300000D01*
X140646784Y-107300000D01*
X140647237Y-106388731D01*
X156308336Y-106388731D01*
X157050000Y-107130395D01*
X157791664Y-106388731D01*
X157732203Y-106154963D01*
X157493758Y-106044066D01*
X157238260Y-105981817D01*
X156975527Y-105970610D01*
X156715656Y-106010875D01*
X156468634Y-106101065D01*
X156367797Y-106154963D01*
X156308336Y-106388731D01*
X140647237Y-106388731D01*
X140647622Y-105617154D01*
X152572451Y-105617154D01*
X152756424Y-105956520D01*
X153170781Y-106170521D01*
X153618926Y-106299573D01*
X154083637Y-106338717D01*
X154547056Y-106286448D01*
X154991373Y-106144776D01*
X155343576Y-105956520D01*
X155527549Y-105617154D01*
X154050000Y-104139605D01*
X152572451Y-105617154D01*
X140647622Y-105617154D01*
X140648432Y-103993637D01*
X151671283Y-103993637D01*
X151723552Y-104457056D01*
X151865224Y-104901373D01*
X152053480Y-105253576D01*
X152392846Y-105437549D01*
X153870395Y-103960000D01*
X154229605Y-103960000D01*
X155707154Y-105437549D01*
X156046520Y-105253576D01*
X156260521Y-104839219D01*
X156389573Y-104391074D01*
X156428717Y-103926363D01*
X156376448Y-103462944D01*
X156234776Y-103018627D01*
X156046520Y-102666424D01*
X155707154Y-102482451D01*
X154229605Y-103960000D01*
X153870395Y-103960000D01*
X152392846Y-102482451D01*
X152053480Y-102666424D01*
X151839479Y-103080781D01*
X151710427Y-103528926D01*
X151671283Y-103993637D01*
X140648432Y-103993637D01*
X140649275Y-102302846D01*
X152572451Y-102302846D01*
X154050000Y-103780395D01*
X155527549Y-102302846D01*
X155343576Y-101963480D01*
X154929219Y-101749479D01*
X154481074Y-101620427D01*
X154016363Y-101581283D01*
X153552944Y-101633552D01*
X153108627Y-101775224D01*
X152756424Y-101963480D01*
X152572451Y-102302846D01*
X140649275Y-102302846D01*
X140649671Y-101510291D01*
X161930329Y-101519708D01*
%TA.AperFunction,Conductor*%
D16*
G36*
X161930329Y-101519708D02*
G01*
X161939671Y-120259699D01*
X160663531Y-120259134D01*
X160668577Y-120242499D01*
X160685000Y-120075752D01*
X160685000Y-120075742D01*
X160690490Y-120020001D01*
X160685000Y-119964259D01*
X160685000Y-114814288D01*
X160733061Y-114742359D01*
X160833696Y-114499405D01*
X160885000Y-114241486D01*
X160885000Y-113978514D01*
X160833696Y-113720595D01*
X160733061Y-113477641D01*
X160586962Y-113258987D01*
X160401013Y-113073038D01*
X160182359Y-112926939D01*
X159939405Y-112826304D01*
X159681486Y-112775000D01*
X159418514Y-112775000D01*
X159160595Y-112826304D01*
X158917641Y-112926939D01*
X158698987Y-113073038D01*
X158513038Y-113258987D01*
X158366939Y-113477641D01*
X158299639Y-113640118D01*
X158258935Y-113528634D01*
X158205037Y-113427797D01*
X157971269Y-113368336D01*
X157229605Y-114110000D01*
X157971269Y-114851664D01*
X158205037Y-114792203D01*
X158301592Y-114584596D01*
X158366939Y-114742359D01*
X158415000Y-114814288D01*
X158415001Y-119055000D01*
X155818482Y-119055000D01*
X155821545Y-119051937D01*
X155707156Y-118937548D01*
X156046520Y-118753576D01*
X156260521Y-118339219D01*
X156389573Y-117891074D01*
X156428717Y-117426363D01*
X156376448Y-116962944D01*
X156234776Y-116518627D01*
X156046520Y-116166424D01*
X155707154Y-115982451D01*
X154229605Y-117460000D01*
X154243748Y-117474143D01*
X154064143Y-117653748D01*
X154050000Y-117639605D01*
X154035858Y-117653748D01*
X153856253Y-117474143D01*
X153870395Y-117460000D01*
X152392846Y-115982451D01*
X152053480Y-116166424D01*
X151839479Y-116580781D01*
X151710427Y-117028926D01*
X151671283Y-117493637D01*
X151723552Y-117957056D01*
X151865224Y-118401373D01*
X152053480Y-118753576D01*
X152392844Y-118937548D01*
X152278455Y-119051937D01*
X152281518Y-119055000D01*
X152233547Y-119055000D01*
X152122103Y-118919205D01*
X152078795Y-118883663D01*
X148997978Y-115802846D01*
X152572451Y-115802846D01*
X154050000Y-117280395D01*
X155527549Y-115802846D01*
X155343576Y-115463480D01*
X154929219Y-115249479D01*
X154481074Y-115120427D01*
X154016363Y-115081283D01*
X153552944Y-115133552D01*
X153108627Y-115275224D01*
X152756424Y-115463480D01*
X152572451Y-115802846D01*
X148997978Y-115802846D01*
X148226401Y-115031269D01*
X156308336Y-115031269D01*
X156367797Y-115265037D01*
X156606242Y-115375934D01*
X156861740Y-115438183D01*
X157124473Y-115449390D01*
X157384344Y-115409125D01*
X157631366Y-115318935D01*
X157732203Y-115265037D01*
X157791664Y-115031269D01*
X157050000Y-114289605D01*
X156308336Y-115031269D01*
X148226401Y-115031269D01*
X147379605Y-114184473D01*
X155710610Y-114184473D01*
X155750875Y-114444344D01*
X155841065Y-114691366D01*
X155894963Y-114792203D01*
X156128731Y-114851664D01*
X156870395Y-114110000D01*
X156128731Y-113368336D01*
X155894963Y-113427797D01*
X155784066Y-113666242D01*
X155721817Y-113921740D01*
X155710610Y-114184473D01*
X147379605Y-114184473D01*
X146383863Y-113188731D01*
X156308336Y-113188731D01*
X157050000Y-113930395D01*
X157791664Y-113188731D01*
X157732203Y-112954963D01*
X157493758Y-112844066D01*
X157238260Y-112781817D01*
X156975527Y-112770610D01*
X156715656Y-112810875D01*
X156468634Y-112901065D01*
X156367797Y-112954963D01*
X156308336Y-113188731D01*
X146383863Y-113188731D01*
X145562286Y-112367154D01*
X151772451Y-112367154D01*
X151956424Y-112706520D01*
X152370781Y-112920521D01*
X152818926Y-113049573D01*
X153283637Y-113088717D01*
X153747056Y-113036448D01*
X154191373Y-112894776D01*
X154543576Y-112706520D01*
X154727549Y-112367154D01*
X153250000Y-110889605D01*
X151772451Y-112367154D01*
X145562286Y-112367154D01*
X143938769Y-110743637D01*
X150871283Y-110743637D01*
X150923552Y-111207056D01*
X151065224Y-111651373D01*
X151253480Y-112003576D01*
X151592846Y-112187549D01*
X153070395Y-110710000D01*
X153429605Y-110710000D01*
X154907154Y-112187549D01*
X155246520Y-112003576D01*
X155460521Y-111589219D01*
X155589573Y-111141074D01*
X155628717Y-110676363D01*
X155576448Y-110212944D01*
X155434776Y-109768627D01*
X155246520Y-109416424D01*
X154907154Y-109232451D01*
X153429605Y-110710000D01*
X153070395Y-110710000D01*
X151592846Y-109232451D01*
X151253480Y-109416424D01*
X151039479Y-109830781D01*
X150910427Y-110278926D01*
X150871283Y-110743637D01*
X143938769Y-110743637D01*
X143765000Y-110569869D01*
X143765000Y-110543740D01*
X143707932Y-110256842D01*
X143595990Y-109986589D01*
X143433475Y-109743368D01*
X143301620Y-109611513D01*
X143374180Y-109589502D01*
X143484494Y-109530537D01*
X143581185Y-109451185D01*
X143660537Y-109354494D01*
X143719502Y-109244180D01*
X143755812Y-109124482D01*
X143762867Y-109052846D01*
X151772451Y-109052846D01*
X153250000Y-110530395D01*
X154727549Y-109052846D01*
X154543576Y-108713480D01*
X154129219Y-108499479D01*
X153681074Y-108370427D01*
X153216363Y-108331283D01*
X152752944Y-108383552D01*
X152308627Y-108525224D01*
X151956424Y-108713480D01*
X151772451Y-109052846D01*
X143762867Y-109052846D01*
X143768072Y-109000000D01*
X143765000Y-108435750D01*
X143606250Y-108277000D01*
X142407000Y-108277000D01*
X142407000Y-108297000D01*
X142153000Y-108297000D01*
X142153000Y-108277000D01*
X140953750Y-108277000D01*
X140795000Y-108435750D01*
X140791928Y-109000000D01*
X140804188Y-109124482D01*
X140840498Y-109244180D01*
X140899463Y-109354494D01*
X140978815Y-109451185D01*
X141075506Y-109530537D01*
X141185820Y-109589502D01*
X141258380Y-109611513D01*
X141126525Y-109743368D01*
X140964010Y-109986589D01*
X140852068Y-110256842D01*
X140795000Y-110543740D01*
X140795000Y-110836260D01*
X140852068Y-111123158D01*
X140964010Y-111393411D01*
X141126525Y-111636632D01*
X141333368Y-111843475D01*
X141507760Y-111960000D01*
X141333368Y-112076525D01*
X141126525Y-112283368D01*
X140964010Y-112526589D01*
X140852068Y-112796842D01*
X140795000Y-113083740D01*
X140795000Y-113376260D01*
X140852068Y-113663158D01*
X140964010Y-113933411D01*
X141126525Y-114176632D01*
X141333368Y-114383475D01*
X141576589Y-114545990D01*
X141846842Y-114657932D01*
X142133740Y-114715000D01*
X142426260Y-114715000D01*
X142713158Y-114657932D01*
X142983411Y-114545990D01*
X143226632Y-114383475D01*
X143433475Y-114176632D01*
X143595990Y-113933411D01*
X143690386Y-113705517D01*
X150178473Y-120193605D01*
X150180654Y-120215751D01*
X150184470Y-120254495D01*
X140640328Y-120250270D01*
X140646319Y-108231269D01*
X156308336Y-108231269D01*
X156367797Y-108465037D01*
X156606242Y-108575934D01*
X156861740Y-108638183D01*
X157124473Y-108649390D01*
X157384344Y-108609125D01*
X157631366Y-108518935D01*
X157732203Y-108465037D01*
X157791664Y-108231269D01*
X157050000Y-107489605D01*
X156308336Y-108231269D01*
X140646319Y-108231269D01*
X140646784Y-107300000D01*
X140791928Y-107300000D01*
X140795000Y-107864250D01*
X140953750Y-108023000D01*
X142153000Y-108023000D01*
X142153000Y-106823750D01*
X142407000Y-106823750D01*
X142407000Y-108023000D01*
X143606250Y-108023000D01*
X143765000Y-107864250D01*
X143767612Y-107384473D01*
X155710610Y-107384473D01*
X155750875Y-107644344D01*
X155841065Y-107891366D01*
X155894963Y-107992203D01*
X156128731Y-108051664D01*
X156870395Y-107310000D01*
X157229605Y-107310000D01*
X157971269Y-108051664D01*
X158205037Y-107992203D01*
X158301592Y-107784596D01*
X158366939Y-107942359D01*
X158513038Y-108161013D01*
X158698987Y-108346962D01*
X158917641Y-108493061D01*
X159160595Y-108593696D01*
X159418514Y-108645000D01*
X159681486Y-108645000D01*
X159939405Y-108593696D01*
X160182359Y-108493061D01*
X160401013Y-108346962D01*
X160586962Y-108161013D01*
X160733061Y-107942359D01*
X160833696Y-107699405D01*
X160885000Y-107441486D01*
X160885000Y-107178514D01*
X160833696Y-106920595D01*
X160733061Y-106677641D01*
X160586962Y-106458987D01*
X160401013Y-106273038D01*
X160182359Y-106126939D01*
X159939405Y-106026304D01*
X159681486Y-105975000D01*
X159418514Y-105975000D01*
X159160595Y-106026304D01*
X158917641Y-106126939D01*
X158698987Y-106273038D01*
X158513038Y-106458987D01*
X158366939Y-106677641D01*
X158299639Y-106840118D01*
X158258935Y-106728634D01*
X158205037Y-106627797D01*
X157971269Y-106568336D01*
X157229605Y-107310000D01*
X156870395Y-107310000D01*
X156128731Y-106568336D01*
X155894963Y-106627797D01*
X155784066Y-106866242D01*
X155721817Y-107121740D01*
X155710610Y-107384473D01*
X143767612Y-107384473D01*
X143768072Y-107300000D01*
X143755812Y-107175518D01*
X143719502Y-107055820D01*
X143660537Y-106945506D01*
X143581185Y-106848815D01*
X143484494Y-106769463D01*
X143374180Y-106710498D01*
X143254482Y-106674188D01*
X143130000Y-106661928D01*
X142565750Y-106665000D01*
X142407000Y-106823750D01*
X142153000Y-106823750D01*
X141994250Y-106665000D01*
X141430000Y-106661928D01*
X141305518Y-106674188D01*
X141185820Y-106710498D01*
X141075506Y-106769463D01*
X140978815Y-106848815D01*
X140899463Y-106945506D01*
X140840498Y-107055820D01*
X140804188Y-107175518D01*
X140791928Y-107300000D01*
X140646784Y-107300000D01*
X140647237Y-106388731D01*
X156308336Y-106388731D01*
X157050000Y-107130395D01*
X157791664Y-106388731D01*
X157732203Y-106154963D01*
X157493758Y-106044066D01*
X157238260Y-105981817D01*
X156975527Y-105970610D01*
X156715656Y-106010875D01*
X156468634Y-106101065D01*
X156367797Y-106154963D01*
X156308336Y-106388731D01*
X140647237Y-106388731D01*
X140647622Y-105617154D01*
X152572451Y-105617154D01*
X152756424Y-105956520D01*
X153170781Y-106170521D01*
X153618926Y-106299573D01*
X154083637Y-106338717D01*
X154547056Y-106286448D01*
X154991373Y-106144776D01*
X155343576Y-105956520D01*
X155527549Y-105617154D01*
X154050000Y-104139605D01*
X152572451Y-105617154D01*
X140647622Y-105617154D01*
X140648432Y-103993637D01*
X151671283Y-103993637D01*
X151723552Y-104457056D01*
X151865224Y-104901373D01*
X152053480Y-105253576D01*
X152392846Y-105437549D01*
X153870395Y-103960000D01*
X154229605Y-103960000D01*
X155707154Y-105437549D01*
X156046520Y-105253576D01*
X156260521Y-104839219D01*
X156389573Y-104391074D01*
X156428717Y-103926363D01*
X156376448Y-103462944D01*
X156234776Y-103018627D01*
X156046520Y-102666424D01*
X155707154Y-102482451D01*
X154229605Y-103960000D01*
X153870395Y-103960000D01*
X152392846Y-102482451D01*
X152053480Y-102666424D01*
X151839479Y-103080781D01*
X151710427Y-103528926D01*
X151671283Y-103993637D01*
X140648432Y-103993637D01*
X140649275Y-102302846D01*
X152572451Y-102302846D01*
X154050000Y-103780395D01*
X155527549Y-102302846D01*
X155343576Y-101963480D01*
X154929219Y-101749479D01*
X154481074Y-101620427D01*
X154016363Y-101581283D01*
X153552944Y-101633552D01*
X153108627Y-101775224D01*
X152756424Y-101963480D01*
X152572451Y-102302846D01*
X140649275Y-102302846D01*
X140649671Y-101510291D01*
X161930329Y-101519708D01*
G37*
%TD.AperFunction*%
%TD*%
M02*
