%FSLAX45Y45*%
G04 Gerber Fmt 4.5, Leading zero omitted, Abs format (unit mm)*
G04 Created by KiCad (PCBNEW (5.1.9)-1) date 2021-04-04 18:43:19*
%MOMM*%
%LPD*%
G01*
G04 APERTURE LIST*
%TA.AperFunction,Profile*%
%ADD10C,0.050000*%
%TD*%
%ADD11C,0.200000*%
%ADD12C,0.300000*%
G04 APERTURE END LIST*
D10*
X13998000Y-12091000D02*
X14002000Y-12091000D01*
X14003000Y-12091000D02*
X16262000Y-12092000D01*
X13999000Y-10085000D02*
X13998000Y-12091000D01*
X16259000Y-10086000D02*
X13999000Y-10085000D01*
X16260000Y-12092000D02*
X16259000Y-10086000D01*
D11*
X15660000Y-10686000D02*
X15750000Y-10776000D01*
X15750000Y-10686000D02*
X15660000Y-10776000D01*
X15660000Y-11366000D02*
X15750000Y-11456000D01*
X15750000Y-11366000D02*
X15660000Y-11456000D01*
X15910000Y-10686000D02*
X16000000Y-10776000D01*
X16000000Y-10686000D02*
X15910000Y-10776000D01*
X15910000Y-11366000D02*
X16000000Y-11456000D01*
X16000000Y-11366000D02*
X15910000Y-11456000D01*
X14278000Y-10815000D02*
G75*
G03*
X14278000Y-10815000I-50000J0D01*
G01*
X14278000Y-11069000D02*
G75*
G03*
X14278000Y-11069000I-50000J0D01*
G01*
X14278000Y-11323000D02*
G75*
G03*
X14278000Y-11323000I-50000J0D01*
G01*
X15325000Y-10955500D02*
X15325000Y-11186500D01*
X15209500Y-11071000D02*
X15440500Y-11071000D01*
X15405000Y-10280500D02*
X15405000Y-10511500D01*
X15289500Y-10396000D02*
X15520500Y-10396000D01*
X15405000Y-11630500D02*
X15405000Y-11861500D01*
X15289500Y-11746000D02*
X15520500Y-11746000D01*
D12*
X14281928Y-12560214D02*
X14281928Y-12260214D01*
X14353357Y-12260214D01*
X14396214Y-12274500D01*
X14424786Y-12303071D01*
X14439071Y-12331643D01*
X14453357Y-12388786D01*
X14453357Y-12431643D01*
X14439071Y-12488786D01*
X14424786Y-12517357D01*
X14396214Y-12545929D01*
X14353357Y-12560214D01*
X14281928Y-12560214D01*
X14581928Y-12560214D02*
X14581928Y-12360214D01*
X14581928Y-12417357D02*
X14596214Y-12388786D01*
X14610500Y-12374500D01*
X14639071Y-12360214D01*
X14667643Y-12360214D01*
X14767643Y-12560214D02*
X14767643Y-12360214D01*
X14767643Y-12260214D02*
X14753357Y-12274500D01*
X14767643Y-12288786D01*
X14781928Y-12274500D01*
X14767643Y-12260214D01*
X14767643Y-12288786D01*
X14953357Y-12560214D02*
X14924786Y-12545929D01*
X14910500Y-12517357D01*
X14910500Y-12260214D01*
X15110500Y-12560214D02*
X15081928Y-12545929D01*
X15067643Y-12517357D01*
X15067643Y-12260214D01*
X15453357Y-12560214D02*
X15453357Y-12260214D01*
X15553357Y-12474500D01*
X15653357Y-12260214D01*
X15653357Y-12560214D01*
X15924786Y-12560214D02*
X15924786Y-12403071D01*
X15910500Y-12374500D01*
X15881928Y-12360214D01*
X15824786Y-12360214D01*
X15796214Y-12374500D01*
X15924786Y-12545929D02*
X15896214Y-12560214D01*
X15824786Y-12560214D01*
X15796214Y-12545929D01*
X15781928Y-12517357D01*
X15781928Y-12488786D01*
X15796214Y-12460214D01*
X15824786Y-12445929D01*
X15896214Y-12445929D01*
X15924786Y-12431643D01*
X16067643Y-12360214D02*
X16067643Y-12660214D01*
X16067643Y-12374500D02*
X16096214Y-12360214D01*
X16153357Y-12360214D01*
X16181928Y-12374500D01*
X16196214Y-12388786D01*
X16210500Y-12417357D01*
X16210500Y-12503071D01*
X16196214Y-12531643D01*
X16181928Y-12545929D01*
X16153357Y-12560214D01*
X16096214Y-12560214D01*
X16067643Y-12545929D01*
X16339071Y-12531643D02*
X16353357Y-12545929D01*
X16339071Y-12560214D01*
X16324786Y-12545929D01*
X16339071Y-12531643D01*
X16339071Y-12560214D01*
X16339071Y-12374500D02*
X16353357Y-12388786D01*
X16339071Y-12403071D01*
X16324786Y-12388786D01*
X16339071Y-12374500D01*
X16339071Y-12403071D01*
X13905500Y-13009500D02*
X13995500Y-13099500D01*
X13995500Y-13009500D02*
X13905500Y-13099500D01*
X14339071Y-12890214D02*
X14367643Y-12890214D01*
X14396214Y-12904500D01*
X14410500Y-12918786D01*
X14424786Y-12947357D01*
X14439071Y-13004500D01*
X14439071Y-13075929D01*
X14424786Y-13133071D01*
X14410500Y-13161643D01*
X14396214Y-13175929D01*
X14367643Y-13190214D01*
X14339071Y-13190214D01*
X14310500Y-13175929D01*
X14296214Y-13161643D01*
X14281928Y-13133071D01*
X14267643Y-13075929D01*
X14267643Y-13004500D01*
X14281928Y-12947357D01*
X14296214Y-12918786D01*
X14310500Y-12904500D01*
X14339071Y-12890214D01*
X14567643Y-13161643D02*
X14581928Y-13175929D01*
X14567643Y-13190214D01*
X14553357Y-13175929D01*
X14567643Y-13161643D01*
X14567643Y-13190214D01*
X14724786Y-13190214D02*
X14781928Y-13190214D01*
X14810500Y-13175929D01*
X14824786Y-13161643D01*
X14853357Y-13118786D01*
X14867643Y-13061643D01*
X14867643Y-12947357D01*
X14853357Y-12918786D01*
X14839071Y-12904500D01*
X14810500Y-12890214D01*
X14753357Y-12890214D01*
X14724786Y-12904500D01*
X14710500Y-12918786D01*
X14696214Y-12947357D01*
X14696214Y-13018786D01*
X14710500Y-13047357D01*
X14724786Y-13061643D01*
X14753357Y-13075929D01*
X14810500Y-13075929D01*
X14839071Y-13061643D01*
X14853357Y-13047357D01*
X14867643Y-13018786D01*
X15053357Y-12890214D02*
X15081928Y-12890214D01*
X15110500Y-12904500D01*
X15124786Y-12918786D01*
X15139071Y-12947357D01*
X15153357Y-13004500D01*
X15153357Y-13075929D01*
X15139071Y-13133071D01*
X15124786Y-13161643D01*
X15110500Y-13175929D01*
X15081928Y-13190214D01*
X15053357Y-13190214D01*
X15024786Y-13175929D01*
X15010500Y-13161643D01*
X14996214Y-13133071D01*
X14981928Y-13075929D01*
X14981928Y-13004500D01*
X14996214Y-12947357D01*
X15010500Y-12918786D01*
X15024786Y-12904500D01*
X15053357Y-12890214D01*
X15281928Y-13190214D02*
X15281928Y-12990214D01*
X15281928Y-13018786D02*
X15296214Y-13004500D01*
X15324786Y-12990214D01*
X15367643Y-12990214D01*
X15396214Y-13004500D01*
X15410500Y-13033071D01*
X15410500Y-13190214D01*
X15410500Y-13033071D02*
X15424786Y-13004500D01*
X15453357Y-12990214D01*
X15496214Y-12990214D01*
X15524786Y-13004500D01*
X15539071Y-13033071D01*
X15539071Y-13190214D01*
X15681928Y-13190214D02*
X15681928Y-12990214D01*
X15681928Y-13018786D02*
X15696214Y-13004500D01*
X15724786Y-12990214D01*
X15767643Y-12990214D01*
X15796214Y-13004500D01*
X15810500Y-13033071D01*
X15810500Y-13190214D01*
X15810500Y-13033071D02*
X15824786Y-13004500D01*
X15853357Y-12990214D01*
X15896214Y-12990214D01*
X15924786Y-13004500D01*
X15939071Y-13033071D01*
X15939071Y-13190214D01*
X16524786Y-12875929D02*
X16267643Y-13261643D01*
X16910500Y-12890214D02*
X16939071Y-12890214D01*
X16967643Y-12904500D01*
X16981928Y-12918786D01*
X16996214Y-12947357D01*
X17010500Y-13004500D01*
X17010500Y-13075929D01*
X16996214Y-13133071D01*
X16981928Y-13161643D01*
X16967643Y-13175929D01*
X16939071Y-13190214D01*
X16910500Y-13190214D01*
X16881928Y-13175929D01*
X16867643Y-13161643D01*
X16853357Y-13133071D01*
X16839071Y-13075929D01*
X16839071Y-13004500D01*
X16853357Y-12947357D01*
X16867643Y-12918786D01*
X16881928Y-12904500D01*
X16910500Y-12890214D01*
X17139071Y-13161643D02*
X17153357Y-13175929D01*
X17139071Y-13190214D01*
X17124786Y-13175929D01*
X17139071Y-13161643D01*
X17139071Y-13190214D01*
X17339071Y-12890214D02*
X17367643Y-12890214D01*
X17396214Y-12904500D01*
X17410500Y-12918786D01*
X17424786Y-12947357D01*
X17439071Y-13004500D01*
X17439071Y-13075929D01*
X17424786Y-13133071D01*
X17410500Y-13161643D01*
X17396214Y-13175929D01*
X17367643Y-13190214D01*
X17339071Y-13190214D01*
X17310500Y-13175929D01*
X17296214Y-13161643D01*
X17281928Y-13133071D01*
X17267643Y-13075929D01*
X17267643Y-13004500D01*
X17281928Y-12947357D01*
X17296214Y-12918786D01*
X17310500Y-12904500D01*
X17339071Y-12890214D01*
X17539071Y-12890214D02*
X17724786Y-12890214D01*
X17624786Y-13004500D01*
X17667643Y-13004500D01*
X17696214Y-13018786D01*
X17710500Y-13033071D01*
X17724786Y-13061643D01*
X17724786Y-13133071D01*
X17710500Y-13161643D01*
X17696214Y-13175929D01*
X17667643Y-13190214D01*
X17581928Y-13190214D01*
X17553357Y-13175929D01*
X17539071Y-13161643D01*
X17996214Y-12890214D02*
X17853357Y-12890214D01*
X17839071Y-13033071D01*
X17853357Y-13018786D01*
X17881928Y-13004500D01*
X17953357Y-13004500D01*
X17981928Y-13018786D01*
X17996214Y-13033071D01*
X18010500Y-13061643D01*
X18010500Y-13133071D01*
X17996214Y-13161643D01*
X17981928Y-13175929D01*
X17953357Y-13190214D01*
X17881928Y-13190214D01*
X17853357Y-13175929D01*
X17839071Y-13161643D01*
X18124786Y-12890214D02*
X18124786Y-12947357D01*
X18239071Y-12890214D02*
X18239071Y-12947357D01*
X18681928Y-13304500D02*
X18667643Y-13290214D01*
X18639071Y-13247357D01*
X18624786Y-13218786D01*
X18610500Y-13175929D01*
X18596214Y-13104500D01*
X18596214Y-13047357D01*
X18610500Y-12975929D01*
X18624786Y-12933071D01*
X18639071Y-12904500D01*
X18667643Y-12861643D01*
X18681928Y-12847357D01*
X18924786Y-12990214D02*
X18924786Y-13190214D01*
X18853357Y-12875929D02*
X18781928Y-13090214D01*
X18967643Y-13090214D01*
X19310500Y-13190214D02*
X19310500Y-12890214D01*
X19439071Y-13190214D02*
X19439071Y-13033071D01*
X19424786Y-13004500D01*
X19396214Y-12990214D01*
X19353357Y-12990214D01*
X19324786Y-13004500D01*
X19310500Y-13018786D01*
X19624786Y-13190214D02*
X19596214Y-13175929D01*
X19581928Y-13161643D01*
X19567643Y-13133071D01*
X19567643Y-13047357D01*
X19581928Y-13018786D01*
X19596214Y-13004500D01*
X19624786Y-12990214D01*
X19667643Y-12990214D01*
X19696214Y-13004500D01*
X19710500Y-13018786D01*
X19724786Y-13047357D01*
X19724786Y-13133071D01*
X19710500Y-13161643D01*
X19696214Y-13175929D01*
X19667643Y-13190214D01*
X19624786Y-13190214D01*
X19896214Y-13190214D02*
X19867643Y-13175929D01*
X19853357Y-13147357D01*
X19853357Y-12890214D01*
X20124786Y-13175929D02*
X20096214Y-13190214D01*
X20039071Y-13190214D01*
X20010500Y-13175929D01*
X19996214Y-13147357D01*
X19996214Y-13033071D01*
X20010500Y-13004500D01*
X20039071Y-12990214D01*
X20096214Y-12990214D01*
X20124786Y-13004500D01*
X20139071Y-13033071D01*
X20139071Y-13061643D01*
X19996214Y-13090214D01*
X20253357Y-13175929D02*
X20281928Y-13190214D01*
X20339071Y-13190214D01*
X20367643Y-13175929D01*
X20381928Y-13147357D01*
X20381928Y-13133071D01*
X20367643Y-13104500D01*
X20339071Y-13090214D01*
X20296214Y-13090214D01*
X20267643Y-13075929D01*
X20253357Y-13047357D01*
X20253357Y-13033071D01*
X20267643Y-13004500D01*
X20296214Y-12990214D01*
X20339071Y-12990214D01*
X20367643Y-13004500D01*
X20481928Y-13304500D02*
X20496214Y-13290214D01*
X20524786Y-13247357D01*
X20539071Y-13218786D01*
X20553357Y-13175929D01*
X20567643Y-13104500D01*
X20567643Y-13047357D01*
X20553357Y-12975929D01*
X20539071Y-12933071D01*
X20524786Y-12904500D01*
X20496214Y-12861643D01*
X20481928Y-12847357D01*
X13995500Y-13450500D02*
G75*
G03*
X13995500Y-13450500I-50000J0D01*
G01*
X14439071Y-13586214D02*
X14267643Y-13586214D01*
X14353357Y-13586214D02*
X14353357Y-13286214D01*
X14324786Y-13329071D01*
X14296214Y-13357643D01*
X14267643Y-13371929D01*
X14567643Y-13557643D02*
X14581928Y-13571929D01*
X14567643Y-13586214D01*
X14553357Y-13571929D01*
X14567643Y-13557643D01*
X14567643Y-13586214D01*
X14767643Y-13286214D02*
X14796214Y-13286214D01*
X14824786Y-13300500D01*
X14839071Y-13314786D01*
X14853357Y-13343357D01*
X14867643Y-13400500D01*
X14867643Y-13471929D01*
X14853357Y-13529071D01*
X14839071Y-13557643D01*
X14824786Y-13571929D01*
X14796214Y-13586214D01*
X14767643Y-13586214D01*
X14739071Y-13571929D01*
X14724786Y-13557643D01*
X14710500Y-13529071D01*
X14696214Y-13471929D01*
X14696214Y-13400500D01*
X14710500Y-13343357D01*
X14724786Y-13314786D01*
X14739071Y-13300500D01*
X14767643Y-13286214D01*
X15053357Y-13286214D02*
X15081928Y-13286214D01*
X15110500Y-13300500D01*
X15124786Y-13314786D01*
X15139071Y-13343357D01*
X15153357Y-13400500D01*
X15153357Y-13471929D01*
X15139071Y-13529071D01*
X15124786Y-13557643D01*
X15110500Y-13571929D01*
X15081928Y-13586214D01*
X15053357Y-13586214D01*
X15024786Y-13571929D01*
X15010500Y-13557643D01*
X14996214Y-13529071D01*
X14981928Y-13471929D01*
X14981928Y-13400500D01*
X14996214Y-13343357D01*
X15010500Y-13314786D01*
X15024786Y-13300500D01*
X15053357Y-13286214D01*
X15281928Y-13586214D02*
X15281928Y-13386214D01*
X15281928Y-13414786D02*
X15296214Y-13400500D01*
X15324786Y-13386214D01*
X15367643Y-13386214D01*
X15396214Y-13400500D01*
X15410500Y-13429071D01*
X15410500Y-13586214D01*
X15410500Y-13429071D02*
X15424786Y-13400500D01*
X15453357Y-13386214D01*
X15496214Y-13386214D01*
X15524786Y-13400500D01*
X15539071Y-13429071D01*
X15539071Y-13586214D01*
X15681928Y-13586214D02*
X15681928Y-13386214D01*
X15681928Y-13414786D02*
X15696214Y-13400500D01*
X15724786Y-13386214D01*
X15767643Y-13386214D01*
X15796214Y-13400500D01*
X15810500Y-13429071D01*
X15810500Y-13586214D01*
X15810500Y-13429071D02*
X15824786Y-13400500D01*
X15853357Y-13386214D01*
X15896214Y-13386214D01*
X15924786Y-13400500D01*
X15939071Y-13429071D01*
X15939071Y-13586214D01*
X16524786Y-13271929D02*
X16267643Y-13657643D01*
X16910500Y-13286214D02*
X16939071Y-13286214D01*
X16967643Y-13300500D01*
X16981928Y-13314786D01*
X16996214Y-13343357D01*
X17010500Y-13400500D01*
X17010500Y-13471929D01*
X16996214Y-13529071D01*
X16981928Y-13557643D01*
X16967643Y-13571929D01*
X16939071Y-13586214D01*
X16910500Y-13586214D01*
X16881928Y-13571929D01*
X16867643Y-13557643D01*
X16853357Y-13529071D01*
X16839071Y-13471929D01*
X16839071Y-13400500D01*
X16853357Y-13343357D01*
X16867643Y-13314786D01*
X16881928Y-13300500D01*
X16910500Y-13286214D01*
X17139071Y-13557643D02*
X17153357Y-13571929D01*
X17139071Y-13586214D01*
X17124786Y-13571929D01*
X17139071Y-13557643D01*
X17139071Y-13586214D01*
X17339071Y-13286214D02*
X17367643Y-13286214D01*
X17396214Y-13300500D01*
X17410500Y-13314786D01*
X17424786Y-13343357D01*
X17439071Y-13400500D01*
X17439071Y-13471929D01*
X17424786Y-13529071D01*
X17410500Y-13557643D01*
X17396214Y-13571929D01*
X17367643Y-13586214D01*
X17339071Y-13586214D01*
X17310500Y-13571929D01*
X17296214Y-13557643D01*
X17281928Y-13529071D01*
X17267643Y-13471929D01*
X17267643Y-13400500D01*
X17281928Y-13343357D01*
X17296214Y-13314786D01*
X17310500Y-13300500D01*
X17339071Y-13286214D01*
X17539071Y-13286214D02*
X17724786Y-13286214D01*
X17624786Y-13400500D01*
X17667643Y-13400500D01*
X17696214Y-13414786D01*
X17710500Y-13429071D01*
X17724786Y-13457643D01*
X17724786Y-13529071D01*
X17710500Y-13557643D01*
X17696214Y-13571929D01*
X17667643Y-13586214D01*
X17581928Y-13586214D01*
X17553357Y-13571929D01*
X17539071Y-13557643D01*
X17867643Y-13586214D02*
X17924786Y-13586214D01*
X17953357Y-13571929D01*
X17967643Y-13557643D01*
X17996214Y-13514786D01*
X18010500Y-13457643D01*
X18010500Y-13343357D01*
X17996214Y-13314786D01*
X17981928Y-13300500D01*
X17953357Y-13286214D01*
X17896214Y-13286214D01*
X17867643Y-13300500D01*
X17853357Y-13314786D01*
X17839071Y-13343357D01*
X17839071Y-13414786D01*
X17853357Y-13443357D01*
X17867643Y-13457643D01*
X17896214Y-13471929D01*
X17953357Y-13471929D01*
X17981928Y-13457643D01*
X17996214Y-13443357D01*
X18010500Y-13414786D01*
X18124786Y-13286214D02*
X18124786Y-13343357D01*
X18239071Y-13286214D02*
X18239071Y-13343357D01*
X18681928Y-13700500D02*
X18667643Y-13686214D01*
X18639071Y-13643357D01*
X18624786Y-13614786D01*
X18610500Y-13571929D01*
X18596214Y-13500500D01*
X18596214Y-13443357D01*
X18610500Y-13371929D01*
X18624786Y-13329071D01*
X18639071Y-13300500D01*
X18667643Y-13257643D01*
X18681928Y-13243357D01*
X18767643Y-13286214D02*
X18953357Y-13286214D01*
X18853357Y-13400500D01*
X18896214Y-13400500D01*
X18924786Y-13414786D01*
X18939071Y-13429071D01*
X18953357Y-13457643D01*
X18953357Y-13529071D01*
X18939071Y-13557643D01*
X18924786Y-13571929D01*
X18896214Y-13586214D01*
X18810500Y-13586214D01*
X18781928Y-13571929D01*
X18767643Y-13557643D01*
X19310500Y-13586214D02*
X19310500Y-13286214D01*
X19439071Y-13586214D02*
X19439071Y-13429071D01*
X19424786Y-13400500D01*
X19396214Y-13386214D01*
X19353357Y-13386214D01*
X19324786Y-13400500D01*
X19310500Y-13414786D01*
X19624786Y-13586214D02*
X19596214Y-13571929D01*
X19581928Y-13557643D01*
X19567643Y-13529071D01*
X19567643Y-13443357D01*
X19581928Y-13414786D01*
X19596214Y-13400500D01*
X19624786Y-13386214D01*
X19667643Y-13386214D01*
X19696214Y-13400500D01*
X19710500Y-13414786D01*
X19724786Y-13443357D01*
X19724786Y-13529071D01*
X19710500Y-13557643D01*
X19696214Y-13571929D01*
X19667643Y-13586214D01*
X19624786Y-13586214D01*
X19896214Y-13586214D02*
X19867643Y-13571929D01*
X19853357Y-13543357D01*
X19853357Y-13286214D01*
X20124786Y-13571929D02*
X20096214Y-13586214D01*
X20039071Y-13586214D01*
X20010500Y-13571929D01*
X19996214Y-13543357D01*
X19996214Y-13429071D01*
X20010500Y-13400500D01*
X20039071Y-13386214D01*
X20096214Y-13386214D01*
X20124786Y-13400500D01*
X20139071Y-13429071D01*
X20139071Y-13457643D01*
X19996214Y-13486214D01*
X20253357Y-13571929D02*
X20281928Y-13586214D01*
X20339071Y-13586214D01*
X20367643Y-13571929D01*
X20381928Y-13543357D01*
X20381928Y-13529071D01*
X20367643Y-13500500D01*
X20339071Y-13486214D01*
X20296214Y-13486214D01*
X20267643Y-13471929D01*
X20253357Y-13443357D01*
X20253357Y-13429071D01*
X20267643Y-13400500D01*
X20296214Y-13386214D01*
X20339071Y-13386214D01*
X20367643Y-13400500D01*
X20481928Y-13700500D02*
X20496214Y-13686214D01*
X20524786Y-13643357D01*
X20539071Y-13614786D01*
X20553357Y-13571929D01*
X20567643Y-13500500D01*
X20567643Y-13443357D01*
X20553357Y-13371929D01*
X20539071Y-13329071D01*
X20524786Y-13300500D01*
X20496214Y-13257643D01*
X20481928Y-13243357D01*
X13880000Y-13731000D02*
X13880000Y-13962000D01*
X13764500Y-13846500D02*
X13995500Y-13846500D01*
X14267643Y-13710786D02*
X14281928Y-13696500D01*
X14310500Y-13682214D01*
X14381928Y-13682214D01*
X14410500Y-13696500D01*
X14424786Y-13710786D01*
X14439071Y-13739357D01*
X14439071Y-13767929D01*
X14424786Y-13810786D01*
X14253357Y-13982214D01*
X14439071Y-13982214D01*
X14567643Y-13953643D02*
X14581928Y-13967929D01*
X14567643Y-13982214D01*
X14553357Y-13967929D01*
X14567643Y-13953643D01*
X14567643Y-13982214D01*
X14681928Y-13682214D02*
X14867643Y-13682214D01*
X14767643Y-13796500D01*
X14810500Y-13796500D01*
X14839071Y-13810786D01*
X14853357Y-13825071D01*
X14867643Y-13853643D01*
X14867643Y-13925071D01*
X14853357Y-13953643D01*
X14839071Y-13967929D01*
X14810500Y-13982214D01*
X14724786Y-13982214D01*
X14696214Y-13967929D01*
X14681928Y-13953643D01*
X15153357Y-13982214D02*
X14981928Y-13982214D01*
X15067643Y-13982214D02*
X15067643Y-13682214D01*
X15039071Y-13725071D01*
X15010500Y-13753643D01*
X14981928Y-13767929D01*
X15281928Y-13982214D02*
X15281928Y-13782214D01*
X15281928Y-13810786D02*
X15296214Y-13796500D01*
X15324786Y-13782214D01*
X15367643Y-13782214D01*
X15396214Y-13796500D01*
X15410500Y-13825071D01*
X15410500Y-13982214D01*
X15410500Y-13825071D02*
X15424786Y-13796500D01*
X15453357Y-13782214D01*
X15496214Y-13782214D01*
X15524786Y-13796500D01*
X15539071Y-13825071D01*
X15539071Y-13982214D01*
X15681928Y-13982214D02*
X15681928Y-13782214D01*
X15681928Y-13810786D02*
X15696214Y-13796500D01*
X15724786Y-13782214D01*
X15767643Y-13782214D01*
X15796214Y-13796500D01*
X15810500Y-13825071D01*
X15810500Y-13982214D01*
X15810500Y-13825071D02*
X15824786Y-13796500D01*
X15853357Y-13782214D01*
X15896214Y-13782214D01*
X15924786Y-13796500D01*
X15939071Y-13825071D01*
X15939071Y-13982214D01*
X16524786Y-13667929D02*
X16267643Y-14053643D01*
X16910500Y-13682214D02*
X16939071Y-13682214D01*
X16967643Y-13696500D01*
X16981928Y-13710786D01*
X16996214Y-13739357D01*
X17010500Y-13796500D01*
X17010500Y-13867929D01*
X16996214Y-13925071D01*
X16981928Y-13953643D01*
X16967643Y-13967929D01*
X16939071Y-13982214D01*
X16910500Y-13982214D01*
X16881928Y-13967929D01*
X16867643Y-13953643D01*
X16853357Y-13925071D01*
X16839071Y-13867929D01*
X16839071Y-13796500D01*
X16853357Y-13739357D01*
X16867643Y-13710786D01*
X16881928Y-13696500D01*
X16910500Y-13682214D01*
X17139071Y-13953643D02*
X17153357Y-13967929D01*
X17139071Y-13982214D01*
X17124786Y-13967929D01*
X17139071Y-13953643D01*
X17139071Y-13982214D01*
X17339071Y-13682214D02*
X17367643Y-13682214D01*
X17396214Y-13696500D01*
X17410500Y-13710786D01*
X17424786Y-13739357D01*
X17439071Y-13796500D01*
X17439071Y-13867929D01*
X17424786Y-13925071D01*
X17410500Y-13953643D01*
X17396214Y-13967929D01*
X17367643Y-13982214D01*
X17339071Y-13982214D01*
X17310500Y-13967929D01*
X17296214Y-13953643D01*
X17281928Y-13925071D01*
X17267643Y-13867929D01*
X17267643Y-13796500D01*
X17281928Y-13739357D01*
X17296214Y-13710786D01*
X17310500Y-13696500D01*
X17339071Y-13682214D01*
X17581928Y-13982214D02*
X17639071Y-13982214D01*
X17667643Y-13967929D01*
X17681928Y-13953643D01*
X17710500Y-13910786D01*
X17724786Y-13853643D01*
X17724786Y-13739357D01*
X17710500Y-13710786D01*
X17696214Y-13696500D01*
X17667643Y-13682214D01*
X17610500Y-13682214D01*
X17581928Y-13696500D01*
X17567643Y-13710786D01*
X17553357Y-13739357D01*
X17553357Y-13810786D01*
X17567643Y-13839357D01*
X17581928Y-13853643D01*
X17610500Y-13867929D01*
X17667643Y-13867929D01*
X17696214Y-13853643D01*
X17710500Y-13839357D01*
X17724786Y-13810786D01*
X18010500Y-13982214D02*
X17839071Y-13982214D01*
X17924786Y-13982214D02*
X17924786Y-13682214D01*
X17896214Y-13725071D01*
X17867643Y-13753643D01*
X17839071Y-13767929D01*
X18124786Y-13682214D02*
X18124786Y-13739357D01*
X18239071Y-13682214D02*
X18239071Y-13739357D01*
X18681928Y-14096500D02*
X18667643Y-14082214D01*
X18639071Y-14039357D01*
X18624786Y-14010786D01*
X18610500Y-13967929D01*
X18596214Y-13896500D01*
X18596214Y-13839357D01*
X18610500Y-13767929D01*
X18624786Y-13725071D01*
X18639071Y-13696500D01*
X18667643Y-13653643D01*
X18681928Y-13639357D01*
X18767643Y-13682214D02*
X18953357Y-13682214D01*
X18853357Y-13796500D01*
X18896214Y-13796500D01*
X18924786Y-13810786D01*
X18939071Y-13825071D01*
X18953357Y-13853643D01*
X18953357Y-13925071D01*
X18939071Y-13953643D01*
X18924786Y-13967929D01*
X18896214Y-13982214D01*
X18810500Y-13982214D01*
X18781928Y-13967929D01*
X18767643Y-13953643D01*
X19310500Y-13982214D02*
X19310500Y-13682214D01*
X19439071Y-13982214D02*
X19439071Y-13825071D01*
X19424786Y-13796500D01*
X19396214Y-13782214D01*
X19353357Y-13782214D01*
X19324786Y-13796500D01*
X19310500Y-13810786D01*
X19624786Y-13982214D02*
X19596214Y-13967929D01*
X19581928Y-13953643D01*
X19567643Y-13925071D01*
X19567643Y-13839357D01*
X19581928Y-13810786D01*
X19596214Y-13796500D01*
X19624786Y-13782214D01*
X19667643Y-13782214D01*
X19696214Y-13796500D01*
X19710500Y-13810786D01*
X19724786Y-13839357D01*
X19724786Y-13925071D01*
X19710500Y-13953643D01*
X19696214Y-13967929D01*
X19667643Y-13982214D01*
X19624786Y-13982214D01*
X19896214Y-13982214D02*
X19867643Y-13967929D01*
X19853357Y-13939357D01*
X19853357Y-13682214D01*
X20124786Y-13967929D02*
X20096214Y-13982214D01*
X20039071Y-13982214D01*
X20010500Y-13967929D01*
X19996214Y-13939357D01*
X19996214Y-13825071D01*
X20010500Y-13796500D01*
X20039071Y-13782214D01*
X20096214Y-13782214D01*
X20124786Y-13796500D01*
X20139071Y-13825071D01*
X20139071Y-13853643D01*
X19996214Y-13882214D01*
X20253357Y-13967929D02*
X20281928Y-13982214D01*
X20339071Y-13982214D01*
X20367643Y-13967929D01*
X20381928Y-13939357D01*
X20381928Y-13925071D01*
X20367643Y-13896500D01*
X20339071Y-13882214D01*
X20296214Y-13882214D01*
X20267643Y-13867929D01*
X20253357Y-13839357D01*
X20253357Y-13825071D01*
X20267643Y-13796500D01*
X20296214Y-13782214D01*
X20339071Y-13782214D01*
X20367643Y-13796500D01*
X20481928Y-14096500D02*
X20496214Y-14082214D01*
X20524786Y-14039357D01*
X20539071Y-14010786D01*
X20553357Y-13967929D01*
X20567643Y-13896500D01*
X20567643Y-13839357D01*
X20553357Y-13767929D01*
X20539071Y-13725071D01*
X20524786Y-13696500D01*
X20496214Y-13653643D01*
X20481928Y-13639357D01*
M02*
