%TF.GenerationSoftware,KiCad,Pcbnew,(5.1.9)-1*%
%TF.CreationDate,2021-04-04T18:43:18-05:00*%
%TF.ProjectId,S-VIDEO PCB Breakout Horizontal,532d5649-4445-44f2-9050-434220427265,rev?*%
%TF.SameCoordinates,Original*%
%TF.FileFunction,Legend,Top*%
%TF.FilePolarity,Positive*%
%FSLAX46Y46*%
G04 Gerber Fmt 4.6, Leading zero omitted, Abs format (unit mm)*
G04 Created by KiCad (PCBNEW (5.1.9)-1) date 2021-04-04 18:43:18*
%MOMM*%
%LPD*%
G01*
G04 APERTURE LIST*
%ADD10C,0.150000*%
%ADD11C,0.200000*%
%ADD12C,0.100000*%
%ADD13C,0.120000*%
G04 APERTURE END LIST*
D10*
X141290000Y-119456190D02*
X141242380Y-119408571D01*
X141147142Y-119360952D01*
X141051904Y-119360952D01*
X140956666Y-119408571D01*
X140909047Y-119456190D01*
X140861428Y-119551428D01*
X140861428Y-119646666D01*
X140909047Y-119741904D01*
X140956666Y-119789523D01*
X141051904Y-119837142D01*
X141147142Y-119837142D01*
X141242380Y-119789523D01*
X141290000Y-119741904D01*
X141290000Y-119360952D02*
X141290000Y-119741904D01*
X141337619Y-119789523D01*
X141385238Y-119789523D01*
X141480476Y-119741904D01*
X141528095Y-119646666D01*
X141528095Y-119408571D01*
X141432857Y-119265714D01*
X141290000Y-119170476D01*
X141099523Y-119122857D01*
X140909047Y-119170476D01*
X140766190Y-119265714D01*
X140670952Y-119408571D01*
X140623333Y-119599047D01*
X140670952Y-119789523D01*
X140766190Y-119932380D01*
X140909047Y-120027619D01*
X141099523Y-120075238D01*
X141290000Y-120027619D01*
X141432857Y-119932380D01*
X142385238Y-119884761D02*
X142290000Y-119932380D01*
X142099523Y-119932380D01*
X142004285Y-119884761D01*
X141956666Y-119837142D01*
X141909047Y-119741904D01*
X141909047Y-119456190D01*
X141956666Y-119360952D01*
X142004285Y-119313333D01*
X142099523Y-119265714D01*
X142290000Y-119265714D01*
X142385238Y-119313333D01*
X142718571Y-119265714D02*
X142956666Y-119932380D01*
X143194761Y-119265714D02*
X142956666Y-119932380D01*
X142861428Y-120170476D01*
X142813809Y-120218095D01*
X142718571Y-120265714D01*
X143718571Y-119932380D02*
X143623333Y-119884761D01*
X143575714Y-119837142D01*
X143528095Y-119741904D01*
X143528095Y-119456190D01*
X143575714Y-119360952D01*
X143623333Y-119313333D01*
X143718571Y-119265714D01*
X143861428Y-119265714D01*
X143956666Y-119313333D01*
X144004285Y-119360952D01*
X144051904Y-119456190D01*
X144051904Y-119741904D01*
X144004285Y-119837142D01*
X143956666Y-119884761D01*
X143861428Y-119932380D01*
X143718571Y-119932380D01*
X144480476Y-119837142D02*
X144528095Y-119884761D01*
X144480476Y-119932380D01*
X144432857Y-119884761D01*
X144480476Y-119837142D01*
X144480476Y-119932380D01*
X144813809Y-119265714D02*
X145194761Y-119265714D01*
X144956666Y-118932380D02*
X144956666Y-119789523D01*
X145004285Y-119884761D01*
X145099523Y-119932380D01*
X145194761Y-119932380D01*
X145528095Y-119932380D02*
X145528095Y-118932380D01*
X145956666Y-119932380D02*
X145956666Y-119408571D01*
X145909047Y-119313333D01*
X145813809Y-119265714D01*
X145670952Y-119265714D01*
X145575714Y-119313333D01*
X145528095Y-119360952D01*
X146813809Y-119884761D02*
X146718571Y-119932380D01*
X146528095Y-119932380D01*
X146432857Y-119884761D01*
X146385238Y-119789523D01*
X146385238Y-119408571D01*
X146432857Y-119313333D01*
X146528095Y-119265714D01*
X146718571Y-119265714D01*
X146813809Y-119313333D01*
X146861428Y-119408571D01*
X146861428Y-119503809D01*
X146385238Y-119599047D01*
X147290000Y-119837142D02*
X147337619Y-119884761D01*
X147290000Y-119932380D01*
X147242380Y-119884761D01*
X147290000Y-119837142D01*
X147290000Y-119932380D01*
X147670952Y-119265714D02*
X147909047Y-119932380D01*
X148147142Y-119265714D01*
X148528095Y-119932380D02*
X148528095Y-119265714D01*
X148528095Y-118932380D02*
X148480476Y-118980000D01*
X148528095Y-119027619D01*
X148575714Y-118980000D01*
X148528095Y-118932380D01*
X148528095Y-119027619D01*
X149147142Y-119932380D02*
X149051904Y-119884761D01*
X149004285Y-119789523D01*
X149004285Y-118932380D01*
X149909047Y-119884761D02*
X149813809Y-119932380D01*
X149623333Y-119932380D01*
X149528095Y-119884761D01*
X149480476Y-119789523D01*
X149480476Y-119408571D01*
X149528095Y-119313333D01*
X149623333Y-119265714D01*
X149813809Y-119265714D01*
X149909047Y-119313333D01*
X149956666Y-119408571D01*
X149956666Y-119503809D01*
X149480476Y-119599047D01*
X140706666Y-102646666D02*
X140706666Y-101946666D01*
X140940000Y-102446666D01*
X141173333Y-101946666D01*
X141173333Y-102646666D01*
X141506666Y-102646666D02*
X141506666Y-101946666D01*
X141673333Y-101946666D01*
X141773333Y-101980000D01*
X141840000Y-102046666D01*
X141873333Y-102113333D01*
X141906666Y-102246666D01*
X141906666Y-102346666D01*
X141873333Y-102480000D01*
X141840000Y-102546666D01*
X141773333Y-102613333D01*
X141673333Y-102646666D01*
X141506666Y-102646666D01*
X142206666Y-102380000D02*
X142740000Y-102380000D01*
X143373333Y-102180000D02*
X143373333Y-102646666D01*
X143206666Y-101913333D02*
X143040000Y-102413333D01*
X143473333Y-102413333D01*
X143873333Y-101946666D02*
X143940000Y-101946666D01*
X144006666Y-101980000D01*
X144040000Y-102013333D01*
X144073333Y-102080000D01*
X144106666Y-102213333D01*
X144106666Y-102380000D01*
X144073333Y-102513333D01*
X144040000Y-102580000D01*
X144006666Y-102613333D01*
X143940000Y-102646666D01*
X143873333Y-102646666D01*
X143806666Y-102613333D01*
X143773333Y-102580000D01*
X143740000Y-102513333D01*
X143706666Y-102380000D01*
X143706666Y-102213333D01*
X143740000Y-102080000D01*
X143773333Y-102013333D01*
X143806666Y-101980000D01*
X143873333Y-101946666D01*
X144373333Y-102613333D02*
X144473333Y-102646666D01*
X144640000Y-102646666D01*
X144706666Y-102613333D01*
X144740000Y-102580000D01*
X144773333Y-102513333D01*
X144773333Y-102446666D01*
X144740000Y-102380000D01*
X144706666Y-102346666D01*
X144640000Y-102313333D01*
X144506666Y-102280000D01*
X144440000Y-102246666D01*
X144406666Y-102213333D01*
X144373333Y-102146666D01*
X144373333Y-102080000D01*
X144406666Y-102013333D01*
X144440000Y-101980000D01*
X144506666Y-101946666D01*
X144673333Y-101946666D01*
X144773333Y-101980000D01*
X145073333Y-102646666D02*
X145073333Y-101946666D01*
X145306666Y-102446666D01*
X145540000Y-101946666D01*
X145540000Y-102646666D01*
X146640000Y-102280000D02*
X146740000Y-102313333D01*
X146773333Y-102346666D01*
X146806666Y-102413333D01*
X146806666Y-102513333D01*
X146773333Y-102580000D01*
X146740000Y-102613333D01*
X146673333Y-102646666D01*
X146406666Y-102646666D01*
X146406666Y-101946666D01*
X146640000Y-101946666D01*
X146706666Y-101980000D01*
X146740000Y-102013333D01*
X146773333Y-102080000D01*
X146773333Y-102146666D01*
X146740000Y-102213333D01*
X146706666Y-102246666D01*
X146640000Y-102280000D01*
X146406666Y-102280000D01*
X147106666Y-102646666D02*
X147106666Y-102180000D01*
X147106666Y-102313333D02*
X147140000Y-102246666D01*
X147173333Y-102213333D01*
X147240000Y-102180000D01*
X147306666Y-102180000D01*
X147806666Y-102613333D02*
X147740000Y-102646666D01*
X147606666Y-102646666D01*
X147540000Y-102613333D01*
X147506666Y-102546666D01*
X147506666Y-102280000D01*
X147540000Y-102213333D01*
X147606666Y-102180000D01*
X147740000Y-102180000D01*
X147806666Y-102213333D01*
X147840000Y-102280000D01*
X147840000Y-102346666D01*
X147506666Y-102413333D01*
X148440000Y-102646666D02*
X148440000Y-102280000D01*
X148406666Y-102213333D01*
X148340000Y-102180000D01*
X148206666Y-102180000D01*
X148140000Y-102213333D01*
X148440000Y-102613333D02*
X148373333Y-102646666D01*
X148206666Y-102646666D01*
X148140000Y-102613333D01*
X148106666Y-102546666D01*
X148106666Y-102480000D01*
X148140000Y-102413333D01*
X148206666Y-102380000D01*
X148373333Y-102380000D01*
X148440000Y-102346666D01*
X148773333Y-102646666D02*
X148773333Y-101946666D01*
X148840000Y-102380000D02*
X149040000Y-102646666D01*
X149040000Y-102180000D02*
X148773333Y-102446666D01*
X149440000Y-102646666D02*
X149373333Y-102613333D01*
X149340000Y-102580000D01*
X149306666Y-102513333D01*
X149306666Y-102313333D01*
X149340000Y-102246666D01*
X149373333Y-102213333D01*
X149440000Y-102180000D01*
X149540000Y-102180000D01*
X149606666Y-102213333D01*
X149640000Y-102246666D01*
X149673333Y-102313333D01*
X149673333Y-102513333D01*
X149640000Y-102580000D01*
X149606666Y-102613333D01*
X149540000Y-102646666D01*
X149440000Y-102646666D01*
X150273333Y-102180000D02*
X150273333Y-102646666D01*
X149973333Y-102180000D02*
X149973333Y-102546666D01*
X150006666Y-102613333D01*
X150073333Y-102646666D01*
X150173333Y-102646666D01*
X150240000Y-102613333D01*
X150273333Y-102580000D01*
X150506666Y-102180000D02*
X150773333Y-102180000D01*
X150606666Y-101946666D02*
X150606666Y-102546666D01*
X150640000Y-102613333D01*
X150706666Y-102646666D01*
X150773333Y-102646666D01*
X141090000Y-103813333D02*
X141190000Y-103846666D01*
X141356666Y-103846666D01*
X141423333Y-103813333D01*
X141456666Y-103780000D01*
X141490000Y-103713333D01*
X141490000Y-103646666D01*
X141456666Y-103580000D01*
X141423333Y-103546666D01*
X141356666Y-103513333D01*
X141223333Y-103480000D01*
X141156666Y-103446666D01*
X141123333Y-103413333D01*
X141090000Y-103346666D01*
X141090000Y-103280000D01*
X141123333Y-103213333D01*
X141156666Y-103180000D01*
X141223333Y-103146666D01*
X141390000Y-103146666D01*
X141490000Y-103180000D01*
X141790000Y-103580000D02*
X142323333Y-103580000D01*
X142556666Y-103146666D02*
X142790000Y-103846666D01*
X143023333Y-103146666D01*
X143256666Y-103846666D02*
X143256666Y-103380000D01*
X143256666Y-103146666D02*
X143223333Y-103180000D01*
X143256666Y-103213333D01*
X143290000Y-103180000D01*
X143256666Y-103146666D01*
X143256666Y-103213333D01*
X143890000Y-103846666D02*
X143890000Y-103146666D01*
X143890000Y-103813333D02*
X143823333Y-103846666D01*
X143690000Y-103846666D01*
X143623333Y-103813333D01*
X143590000Y-103780000D01*
X143556666Y-103713333D01*
X143556666Y-103513333D01*
X143590000Y-103446666D01*
X143623333Y-103413333D01*
X143690000Y-103380000D01*
X143823333Y-103380000D01*
X143890000Y-103413333D01*
X144490000Y-103813333D02*
X144423333Y-103846666D01*
X144290000Y-103846666D01*
X144223333Y-103813333D01*
X144190000Y-103746666D01*
X144190000Y-103480000D01*
X144223333Y-103413333D01*
X144290000Y-103380000D01*
X144423333Y-103380000D01*
X144490000Y-103413333D01*
X144523333Y-103480000D01*
X144523333Y-103546666D01*
X144190000Y-103613333D01*
X144923333Y-103846666D02*
X144856666Y-103813333D01*
X144823333Y-103780000D01*
X144790000Y-103713333D01*
X144790000Y-103513333D01*
X144823333Y-103446666D01*
X144856666Y-103413333D01*
X144923333Y-103380000D01*
X145023333Y-103380000D01*
X145090000Y-103413333D01*
X145123333Y-103446666D01*
X145156666Y-103513333D01*
X145156666Y-103713333D01*
X145123333Y-103780000D01*
X145090000Y-103813333D01*
X145023333Y-103846666D01*
X144923333Y-103846666D01*
X146223333Y-103480000D02*
X146323333Y-103513333D01*
X146356666Y-103546666D01*
X146390000Y-103613333D01*
X146390000Y-103713333D01*
X146356666Y-103780000D01*
X146323333Y-103813333D01*
X146256666Y-103846666D01*
X145990000Y-103846666D01*
X145990000Y-103146666D01*
X146223333Y-103146666D01*
X146290000Y-103180000D01*
X146323333Y-103213333D01*
X146356666Y-103280000D01*
X146356666Y-103346666D01*
X146323333Y-103413333D01*
X146290000Y-103446666D01*
X146223333Y-103480000D01*
X145990000Y-103480000D01*
X146690000Y-103846666D02*
X146690000Y-103380000D01*
X146690000Y-103513333D02*
X146723333Y-103446666D01*
X146756666Y-103413333D01*
X146823333Y-103380000D01*
X146890000Y-103380000D01*
X147390000Y-103813333D02*
X147323333Y-103846666D01*
X147190000Y-103846666D01*
X147123333Y-103813333D01*
X147090000Y-103746666D01*
X147090000Y-103480000D01*
X147123333Y-103413333D01*
X147190000Y-103380000D01*
X147323333Y-103380000D01*
X147390000Y-103413333D01*
X147423333Y-103480000D01*
X147423333Y-103546666D01*
X147090000Y-103613333D01*
X148023333Y-103846666D02*
X148023333Y-103480000D01*
X147990000Y-103413333D01*
X147923333Y-103380000D01*
X147790000Y-103380000D01*
X147723333Y-103413333D01*
X148023333Y-103813333D02*
X147956666Y-103846666D01*
X147790000Y-103846666D01*
X147723333Y-103813333D01*
X147690000Y-103746666D01*
X147690000Y-103680000D01*
X147723333Y-103613333D01*
X147790000Y-103580000D01*
X147956666Y-103580000D01*
X148023333Y-103546666D01*
X148356666Y-103846666D02*
X148356666Y-103146666D01*
X148423333Y-103580000D02*
X148623333Y-103846666D01*
X148623333Y-103380000D02*
X148356666Y-103646666D01*
X149023333Y-103846666D02*
X148956666Y-103813333D01*
X148923333Y-103780000D01*
X148890000Y-103713333D01*
X148890000Y-103513333D01*
X148923333Y-103446666D01*
X148956666Y-103413333D01*
X149023333Y-103380000D01*
X149123333Y-103380000D01*
X149190000Y-103413333D01*
X149223333Y-103446666D01*
X149256666Y-103513333D01*
X149256666Y-103713333D01*
X149223333Y-103780000D01*
X149190000Y-103813333D01*
X149123333Y-103846666D01*
X149023333Y-103846666D01*
X149856666Y-103380000D02*
X149856666Y-103846666D01*
X149556666Y-103380000D02*
X149556666Y-103746666D01*
X149590000Y-103813333D01*
X149656666Y-103846666D01*
X149756666Y-103846666D01*
X149823333Y-103813333D01*
X149856666Y-103780000D01*
X150090000Y-103380000D02*
X150356666Y-103380000D01*
X150190000Y-103146666D02*
X150190000Y-103746666D01*
X150223333Y-103813333D01*
X150290000Y-103846666D01*
X150356666Y-103846666D01*
D11*
%TO.C,J1*%
X157450000Y-118510000D02*
X157450000Y-118510000D01*
X157350000Y-118510000D02*
X157350000Y-118510000D01*
X157450000Y-118510000D02*
X157450000Y-118510000D01*
D12*
X157050000Y-117710000D02*
X161550000Y-117710000D01*
X157050000Y-117710000D02*
X157050000Y-117710000D01*
X161550000Y-117710000D02*
X157050000Y-117710000D01*
X161550000Y-117710000D02*
X161550000Y-117710000D01*
X161550000Y-103710000D02*
X161550000Y-103710000D01*
X161550000Y-117710000D02*
X161550000Y-103710000D01*
X161550000Y-117710000D02*
X161550000Y-117710000D01*
X161550000Y-103710000D02*
X161550000Y-117710000D01*
X161550000Y-103710000D02*
X156800000Y-103710000D01*
X161550000Y-103710000D02*
X161550000Y-103710000D01*
X156800000Y-103710000D02*
X161550000Y-103710000D01*
X156800000Y-103710000D02*
X156800000Y-103710000D01*
X151550000Y-103710000D02*
X148550000Y-103710000D01*
X151550000Y-103710000D02*
X151550000Y-103710000D01*
X148550000Y-103710000D02*
X151550000Y-103710000D01*
X148550000Y-103710000D02*
X148550000Y-103710000D01*
X148550000Y-117710000D02*
X148550000Y-117710000D01*
X148550000Y-103710000D02*
X148550000Y-117710000D01*
X148550000Y-103710000D02*
X148550000Y-103710000D01*
X148550000Y-117710000D02*
X148550000Y-103710000D01*
X148550000Y-117710000D02*
X151550000Y-117710000D01*
X148550000Y-117710000D02*
X148550000Y-117710000D01*
X151550000Y-117710000D02*
X148550000Y-117710000D01*
X151550000Y-117710000D02*
X151550000Y-117710000D01*
D11*
X157350000Y-118510000D02*
G75*
G02*
X157450000Y-118510000I50000J0D01*
G01*
X157450000Y-118510000D02*
G75*
G02*
X157350000Y-118510000I-50000J0D01*
G01*
X157350000Y-118510000D02*
G75*
G02*
X157450000Y-118510000I50000J0D01*
G01*
D13*
%TO.C,J2*%
X140950000Y-109420000D02*
X143610000Y-109420000D01*
X140950000Y-109420000D02*
X140950000Y-114560000D01*
X140950000Y-114560000D02*
X143610000Y-114560000D01*
X143610000Y-109420000D02*
X143610000Y-114560000D01*
X143610000Y-106820000D02*
X143610000Y-108150000D01*
X142280000Y-106820000D02*
X143610000Y-106820000D01*
%TD*%
M02*
