%FSLAX45Y45*%
G04 Gerber Fmt 4.5, Leading zero omitted, Abs format (unit mm)*
G04 Created by KiCad (PCBNEW (5.1.9)-1) date 2021-04-04 18:43:19*
%MOMM*%
%LPD*%
G01*
G04 APERTURE LIST*
%TA.AperFunction,Profile*%
%ADD10C,0.050000*%
%TD*%
%ADD11C,0.200000*%
%ADD12C,0.300000*%
G04 APERTURE END LIST*
D10*
X13998000Y-12091000D02*
X14002000Y-12091000D01*
X14003000Y-12091000D02*
X16262000Y-12092000D01*
X13999000Y-10085000D02*
X13998000Y-12091000D01*
X16259000Y-10086000D02*
X13999000Y-10085000D01*
X16260000Y-12092000D02*
X16259000Y-10086000D01*
D11*
D12*
X14281928Y-12560214D02*
X14281928Y-12260214D01*
X14353357Y-12260214D01*
X14396214Y-12274500D01*
X14424786Y-12303071D01*
X14439071Y-12331643D01*
X14453357Y-12388786D01*
X14453357Y-12431643D01*
X14439071Y-12488786D01*
X14424786Y-12517357D01*
X14396214Y-12545929D01*
X14353357Y-12560214D01*
X14281928Y-12560214D01*
X14581928Y-12560214D02*
X14581928Y-12360214D01*
X14581928Y-12417357D02*
X14596214Y-12388786D01*
X14610500Y-12374500D01*
X14639071Y-12360214D01*
X14667643Y-12360214D01*
X14767643Y-12560214D02*
X14767643Y-12360214D01*
X14767643Y-12260214D02*
X14753357Y-12274500D01*
X14767643Y-12288786D01*
X14781928Y-12274500D01*
X14767643Y-12260214D01*
X14767643Y-12288786D01*
X14953357Y-12560214D02*
X14924786Y-12545929D01*
X14910500Y-12517357D01*
X14910500Y-12260214D01*
X15110500Y-12560214D02*
X15081928Y-12545929D01*
X15067643Y-12517357D01*
X15067643Y-12260214D01*
X15453357Y-12560214D02*
X15453357Y-12260214D01*
X15553357Y-12474500D01*
X15653357Y-12260214D01*
X15653357Y-12560214D01*
X15924786Y-12560214D02*
X15924786Y-12403071D01*
X15910500Y-12374500D01*
X15881928Y-12360214D01*
X15824786Y-12360214D01*
X15796214Y-12374500D01*
X15924786Y-12545929D02*
X15896214Y-12560214D01*
X15824786Y-12560214D01*
X15796214Y-12545929D01*
X15781928Y-12517357D01*
X15781928Y-12488786D01*
X15796214Y-12460214D01*
X15824786Y-12445929D01*
X15896214Y-12445929D01*
X15924786Y-12431643D01*
X16067643Y-12360214D02*
X16067643Y-12660214D01*
X16067643Y-12374500D02*
X16096214Y-12360214D01*
X16153357Y-12360214D01*
X16181928Y-12374500D01*
X16196214Y-12388786D01*
X16210500Y-12417357D01*
X16210500Y-12503071D01*
X16196214Y-12531643D01*
X16181928Y-12545929D01*
X16153357Y-12560214D01*
X16096214Y-12560214D01*
X16067643Y-12545929D01*
X16339071Y-12531643D02*
X16353357Y-12545929D01*
X16339071Y-12560214D01*
X16324786Y-12545929D01*
X16339071Y-12531643D01*
X16339071Y-12560214D01*
X16339071Y-12374500D02*
X16353357Y-12388786D01*
X16339071Y-12403071D01*
X16324786Y-12388786D01*
X16339071Y-12374500D01*
X16339071Y-12403071D01*
M02*
